<?xml version="1.0" standalone="no"?>
<!DOCTYPE svg PUBLIC "-//W3C//DTD SVG 1.1//EN" "http://www.w3.org/Graphics/SVG/1.1/DTD/svg11.dtd" >
<svg xmlns="http://www.w3.org/2000/svg">
<metadata></metadata>
<defs>
<font id="tg_alcefunregular" horiz-adv-x="1030" >
<font-face units-per-em="2048" ascent="1536" descent="-512" />
<missing-glyph horiz-adv-x="831" />
<glyph horiz-adv-x="0" />
<glyph unicode="&#xd;" horiz-adv-x="0" />
<glyph horiz-adv-x="0" />
<glyph horiz-adv-x="0" />
<glyph horiz-adv-x="0" />
<glyph unicode="&#x9;" horiz-adv-x="0" />
<glyph unicode="&#xa;" horiz-adv-x="0" />
<glyph unicode=" "  horiz-adv-x="831" />
<glyph unicode="&#x09;" horiz-adv-x="831" />
<glyph unicode="&#xa0;" horiz-adv-x="831" />
<glyph unicode="!" horiz-adv-x="339" d="M72 113q0 43 29.5 71.5t70.5 28.5t68.5 -28.5t27.5 -71.5q0 -41 -27.5 -69t-68.5 -28t-70.5 28t-29.5 69zM78 872v408h184v-408l-31 -536h-122z" />
<glyph unicode="&#x22;" horiz-adv-x="737" d="M72 903l118 377h160l-176 -377h-102zM389 903l119 377h158l-174 -377h-103z" />
<glyph unicode="#" horiz-adv-x="1122" d="M72 377l20 123h187l47 266h-187l23 123h184l68 375h125l-68 -375h270l68 375h123l-66 -375h185l-21 -123h-184l-47 -266h184l-22 -123h-185l-65 -377h-125l65 377h-270l-66 -377h-125l66 377h-184zM403 500h271l47 266h-270z" />
<glyph unicode="$" horiz-adv-x="839" d="M72 332h125q0 -45 17 -85t48 -71t71 -48t87 -17q45 0 86 17t70.5 48t47 71t17.5 85q0 55 -24.5 102t-65.5 78q-78 55 -141 102q-55 41 -104.5 77t-61.5 46q-59 43 -91 106.5t-32 135.5q0 111 66.5 190.5t170.5 102.5v127h123v-127q102 -23 169 -102.5t67 -190.5h-125 q0 37 -13.5 68.5t-37 55t-55 37t-66.5 13.5q-72 0 -123 -51t-51 -123q0 -41 19.5 -78t49.5 -61l312 -228q66 -47 103.5 -120.5t37.5 -159.5q0 -63 -22.5 -120.5t-60.5 -104t-90 -77t-114 -40.5v-191h-123v191q-61 10 -113 40.5t-91 77t-60.5 103.5t-21.5 121z" />
<glyph unicode="%" horiz-adv-x="1449" d="M76 782q-10 80 12.5 164t70.5 148.5t120.5 96.5t160.5 9q88 -25 135.5 -88t57.5 -143t-12.5 -164t-71.5 -148.5t-122 -97.5t-161 -8q-88 23 -134 87t-56 144zM184 -14l934 1239h146l-934 -1239h-146zM189.5 810q5.5 -52 31 -92t76.5 -54t94 8t73 64t45 96.5t10 106.5 t-30.5 92t-76.5 54t-94.5 -8t-73 -64t-45 -96.5t-10 -106.5zM817 242q-10 80 12.5 163.5t70.5 148t121 96.5t161 9q88 -25 134 -88t57 -143t-11.5 -164t-71.5 -148.5t-121.5 -97t-160.5 -8.5q-88 25 -134.5 88.5t-56.5 143.5zM931 269.5q5 -52.5 30.5 -92.5t76.5 -54 t94.5 8.5t73 64.5t44 96t10 106.5t-31 92t-77.5 54.5q-51 14 -93 -8.5t-72 -64.5t-45 -96t-10 -106.5z" />
<glyph unicode="&#x26;" horiz-adv-x="1187" d="M72 342q0 98 45 177t121 126l116 72l-73 88q-66 78 -66 180q0 57 21.5 108.5t59.5 89.5t89 59.5t109 21.5q57 0 108 -21.5t90 -59.5t60.5 -89.5t21.5 -108.5q0 -76 -38 -139.5t-97 -100.5l-98 -59l299 -354q35 53 54 115.5t24 130.5h122q-4 -98 -34.5 -185.5 t-83.5 -159.5l194 -233h-160l-118 141q-82 -72 -186.5 -113.5t-223.5 -41.5q-74 0 -138.5 27.5t-113.5 76.5t-76.5 113.5t-27.5 138.5zM195 342q0 -49 18 -91t50 -74t74 -50t91 -18q96 0 180 33.5t150 93.5l-324 387l-131 -82q-49 -31 -78.5 -83t-29.5 -116zM338 985 q0 -57 37 -100l86 -103l114 70q35 20 55.5 55t20.5 78q0 66 -46 111t-111 45q-66 0 -111 -45t-45 -111z" />
<glyph unicode="'" horiz-adv-x="419" d="M72 903l116 377h160l-176 -377h-100z" />
<glyph unicode="(" horiz-adv-x="495" d="M72 633q0 229 95 426.5t257 339.5v-172q-109 -119 -169 -270.5t-60 -323.5q0 -174 60 -325.5t169 -270.5v-172q-162 141 -257 338.5t-95 429.5z" />
<glyph unicode=")" horiz-adv-x="495" d="M72 37q109 119 169 270.5t60 325.5q0 172 -60.5 323.5t-168.5 270.5v172q162 -141 257 -339t95 -427q0 -231 -95.5 -429t-256.5 -339v172z" />
<glyph unicode="*" horiz-adv-x="651" d="M72 1087v123h147l-74 127l107 62l74 -127l73 127l107 -62l-74 -127h148v-123h-148l74 -129l-107 -61l-73 129l-74 -129l-107 61l74 129h-147z" />
<glyph unicode="+" horiz-adv-x="1040" d="M72 571v123h387v387h123v-387h387v-123h-387v-387h-123v387h-387z" />
<glyph unicode="," horiz-adv-x="342" d="M72 82q0 43 29.5 71.5t70.5 28.5t69.5 -28.5t28.5 -71.5q0 -88 -49 -160t-133 -104v61q59 39 82 107q-41 0 -69.5 27.5t-28.5 68.5z" />
<glyph unicode="-" horiz-adv-x="655" d="M72 571v123h512v-123h-512z" />
<glyph unicode="." horiz-adv-x="339" d="M72 82q0 43 29.5 71.5t70.5 28.5t68.5 -28.5t27.5 -71.5q0 -41 -27.5 -68.5t-68.5 -27.5t-70.5 27.5t-29.5 68.5z" />
<glyph unicode="/" horiz-adv-x="798" d="M72 -14l522 1294h133l-522 -1294h-133z" />
<glyph unicode="0" horiz-adv-x="894" d="M72 604q0 92 10 200.5t48 201t112.5 155t203.5 62.5q125 0 200 -58.5t115 -148.5t51 -199.5t11 -212.5q0 -61 -4 -131t-17.5 -138.5t-38 -132t-66.5 -111.5t-103.5 -76.5t-147.5 -28.5q-125 0 -199.5 58t-113.5 148.5t-50 200t-11 211.5zM188 604q0 -66 4.5 -151.5 t29 -163.5t76.5 -132.5t148 -54.5q92 0 144.5 50.5t78 126t32 163.5t6.5 162q0 66 -5.5 152t-30 163.5t-77 132t-148.5 54.5q-94 0 -146 -50t-76.5 -126t-30 -164t-5.5 -162z" />
<glyph unicode="1" horiz-adv-x="376" d="M72 1092v116h233v-1208h-117v1092h-116z" />
<glyph unicode="2" horiz-adv-x="903" d="M72 0l563 731q23 29 35 64.5t12 76.5q0 49 -18.5 91.5t-51 74t-74.5 50t-92 18.5q-49 0 -91 -18.5t-73.5 -50t-50 -73.5t-18.5 -92h-117q0 74 28 137.5t75 110.5t111.5 75t135.5 28q74 0 137.5 -28t111.5 -75t76 -110.5t28 -137.5q0 -121 -74 -213l-416 -542h522v-117 h-759z" />
<glyph unicode="3" horiz-adv-x="872" d="M72 348h116q0 -51 19.5 -95t53.5 -78t79 -53.5t96 -19.5t95 19.5t78 53.5t53.5 78t19.5 95t-19.5 96t-52 78t-78 52.5t-96.5 19.5h-59v119h59q82 0 139.5 56t57.5 140q0 82 -57.5 139.5t-139.5 57.5q-41 0 -76.5 -15.5t-63.5 -42t-43 -62.5t-15 -77h-117q0 66 24.5 123.5 t67.5 99.5t100 66.5t123 24.5t123 -24.5t99 -66.5t67 -99.5t25 -123.5q0 -78 -33 -142.5t-90 -107.5q78 -49 126 -131t48 -180q0 -76 -29 -141.5t-78 -114.5t-115.5 -77.5t-142.5 -28.5t-142.5 28.5t-115.5 77.5t-77.5 114.5t-28.5 141.5z" />
<glyph unicode="4" horiz-adv-x="878" d="M72 231l618 992v-875h117v-117h-117v-231h-117v231h-501zM283 348h290v467z" />
<glyph unicode="5" horiz-adv-x="958" d="M72 348h116q8 -53 34 -97t65 -78t87 -52.5t103 -18.5q61 0 114.5 22.5t93.5 62.5t62.5 93.5t22.5 112.5q0 61 -22.5 114.5t-62.5 93.5t-93 62.5t-115 22.5q-96 0 -168 -53h-119l103 575h475v-116h-377l-55 -314q63 25 141 25q86 0 161 -32t130 -87t87 -130t32 -161 q0 -84 -32 -158.5t-87 -130t-130 -87t-161 -31.5q-78 0 -148.5 27.5t-124.5 76.5t-89 114.5t-43 143.5z" />
<glyph unicode="6" horiz-adv-x="903" d="M72 365v507q2 74 31.5 137.5t78.5 110.5t114.5 75t139.5 28q70 0 132.5 -24.5t111.5 -68.5l-84 -81q-68 57 -160 57q-49 0 -94 -18.5t-79 -50t-54.5 -75.5t-20.5 -94v-229q51 49 118 77.5t145 28.5q80 0 148.5 -29.5t120.5 -81.5t81.5 -121t29.5 -148q0 -78 -29.5 -148 t-81.5 -121t-120.5 -80.5t-148.5 -29.5q-78 0 -148 29.5t-121 80.5t-80.5 121t-29.5 148zM188 365q0 -55 20.5 -102.5t56.5 -83.5t83.5 -56.5t102.5 -20.5t103 20.5t84 56.5t56.5 83t20.5 103q0 55 -20.5 103t-56.5 84t-84 56.5t-103 20.5t-102.5 -20.5t-83.5 -56.5 t-56.5 -84t-20.5 -103z" />
<glyph unicode="7" horiz-adv-x="927" d="M72 1092v116h784q-193 -262 -316.5 -566t-164.5 -642h-119q35 299 132 572.5t249 519.5h-565z" />
<glyph unicode="8" horiz-adv-x="870" d="M72 348q0 98 48 180t126 131q-57 43 -91 107.5t-34 142.5q0 66 24.5 123.5t67.5 99.5t100 66.5t123 24.5q63 0 120.5 -24.5t100.5 -66.5t68 -99.5t25 -123.5q0 -78 -34 -142.5t-91 -107.5q78 -49 126 -131t48 -180q0 -76 -29 -141.5t-78 -114.5t-114.5 -77.5 t-141.5 -28.5t-142.5 28.5t-115.5 77.5t-77.5 114.5t-28.5 141.5zM188 348q0 -51 19.5 -95t53.5 -78t79 -53.5t96 -19.5t95 19.5t78 53.5t53.5 78t19.5 95t-19.5 96t-53.5 78t-78 52.5t-95 19.5t-96 -19.5t-79 -52.5t-53.5 -78t-19.5 -96zM238 909q0 -84 57 -140t141 -56 q82 0 139.5 56t57.5 140q0 82 -57.5 139.5t-139.5 57.5q-84 0 -141 -57.5t-57 -139.5z" />
<glyph unicode="9" horiz-adv-x="937" d="M72 825q0 82 31.5 155t85 126t126 85t154.5 32t154.5 -32t126 -85t85 -126t31.5 -155q0 -98 -45 -184l-325 -641h-131l227 446q-59 -18 -123 -18q-82 0 -154.5 32t-126 85t-85 125.5t-31.5 154.5zM188 825q0 -59 21.5 -109t60.5 -89t89.5 -60.5t109.5 -21.5 q57 0 108.5 21.5t90.5 60.5t60.5 89t21.5 109q0 57 -21.5 108.5t-60.5 90.5t-90.5 60.5t-108.5 21.5q-59 0 -109.5 -21.5t-89.5 -60.5t-60.5 -90t-21.5 -109z" />
<glyph unicode=":" horiz-adv-x="342" d="M72 82q0 43 29.5 71.5t70.5 28.5t69.5 -28.5t28.5 -71.5q0 -41 -28.5 -68.5t-69.5 -27.5t-70.5 27.5t-29.5 68.5zM72 709q0 43 29.5 71.5t70.5 28.5t69.5 -28.5t28.5 -71.5q0 -41 -28.5 -69t-69.5 -28t-70.5 28t-29.5 69z" />
<glyph unicode=";" horiz-adv-x="339" d="M72 82q0 43 29.5 71.5t70.5 28.5t68.5 -28.5t27.5 -71.5q0 -88 -48 -160t-134 -104v61q29 18 50.5 45t31.5 62q-41 0 -68.5 27.5t-27.5 68.5zM72 709q0 43 29.5 71.5t70.5 28.5t68.5 -28.5t27.5 -71.5q0 -41 -27.5 -69t-68.5 -28t-70.5 28t-29.5 69z" />
<glyph unicode="&#x3c;" horiz-adv-x="1153" d="M72 633l1009 471v-137l-719 -334l719 -336v-135z" />
<glyph unicode="=" horiz-adv-x="786" d="M72 418v123h643v-123h-643zM72 725v123h643v-123h-643z" />
<glyph unicode="&#x3e;" horiz-adv-x="1153" d="M72 162v135l719 336l-719 334v137l1009 -471z" />
<glyph unicode="?" horiz-adv-x="856" d="M72 922q0 74 27.5 139t76.5 113.5t113.5 76t138.5 27.5t138.5 -27.5t113.5 -76t76.5 -114t27.5 -138.5q0 -98 -49 -179t-131 -129q-53 -33 -84 -86t-31 -116v-76h-122v76q0 98 49 180t129 129q53 31 85 85t32 116q0 49 -18.5 91t-50.5 73.5t-74 50t-91 18.5t-91 -18.5 t-74 -50t-50 -73.5t-18 -91h-123zM330 113q0 43 28.5 71.5t69.5 28.5t69.5 -28.5t28.5 -71.5q0 -41 -28.5 -69t-69.5 -28t-69.5 28t-28.5 69z" />
<glyph unicode="@" horiz-adv-x="1437" d="M72 631q0 135 51 252.5t139 205t206 138.5t251 51q135 0 253 -51t205 -139.5t138 -206t51 -250.5q0 -119 -28.5 -205t-71.5 -139.5t-94.5 -76t-97.5 -15t-80 43.5t-42 99q-111 -98 -256 -98q-80 0 -150.5 30.5t-122.5 83t-83 123t-31 150.5t31 150.5t83 122.5t122.5 83 t150.5 31q70 0 135.5 -24.5t118.5 -71.5v81h117v-639q0 -39 28.5 -48t62.5 20.5t62.5 102.5t28.5 196q0 109 -42 205t-113.5 167.5t-168 113.5t-206.5 42q-111 0 -207 -41t-168 -112.5t-113 -168t-41 -206.5q0 -111 41 -207t113 -168t168 -113t207 -41q121 0 231 52l49 -107 q-68 -31 -136 -47t-144 -16q-133 0 -251 51t-206 139t-139 206t-51 251zM426 627q0 -55 21.5 -104.5t58.5 -85.5t86 -57.5t104 -21.5q86 0 156 50.5t98 134.5v170q-29 82 -98.5 132t-155.5 50q-55 0 -104 -20.5t-86 -57.5t-58.5 -86t-21.5 -104z" />
<glyph unicode="A" horiz-adv-x="1282" d="M72 0l569 1280l569 -1280h-135l-117 262h-636l-117 -262h-133zM377 385h526l-262 592z" />
<glyph unicode="B" horiz-adv-x="884" d="M72 0v1264h338q70 0 131 -27t107 -73t73 -107.5t27 -130.5q0 -78 -33 -144.5t-88 -113.5q84 -45 135 -127t51 -185q0 -74 -27.5 -138t-77 -113.5t-114 -77t-137.5 -27.5h-385zM195 123h262q49 0 91 18.5t73.5 50t50 73.5t18.5 91t-18.5 91t-50 73t-73.5 49.5t-91 18.5 h-262v-465zM195 711h215q45 0 83.5 16t67.5 46t46.5 69t17.5 84t-17.5 84t-46.5 67.5t-67.5 46t-83.5 17.5h-215v-430z" />
<glyph unicode="C" horiz-adv-x="1247" d="M72 631q0 135 51 252.5t138 205t205 138.5t253 51t251.5 -50t205.5 -138l-86 -89q-72 72 -167.5 113t-203.5 41q-109 0 -205 -41t-167 -112.5t-111.5 -167t-40.5 -203.5q0 -109 40.5 -204t111.5 -167t167 -113t205 -41t204 41t167 113l86 -86q-88 -88 -205 -139t-252 -51 t-253 51t-205 139t-138 206t-51 251z" />
<glyph unicode="D" horiz-adv-x="1083" d="M72 0v1264h307q131 0 245.5 -49.5t200.5 -135.5t136.5 -200.5t50.5 -245.5t-50.5 -246t-136.5 -201t-200.5 -136t-245.5 -50h-307zM195 123h184q104 0 197.5 40t163 109.5t109.5 162.5t40 198q0 104 -40 197.5t-109.5 162t-163 108.5t-197.5 40h-184v-1018z" />
<glyph unicode="E" horiz-adv-x="880" d="M72 0v1264h737v-123h-614v-430h491v-123h-491v-465h614v-123h-737z" />
<glyph unicode="F" horiz-adv-x="880" d="M72 0v926q0 70 26.5 131t72.5 107t107.5 73t131.5 27h399v-123h-399q-45 0 -84 -17.5t-69 -46t-46 -67.5t-16 -84v-215h491v-123h-491v-588h-123z" />
<glyph unicode="G" horiz-adv-x="1437" d="M72 631q0 135 51 252.5t139 205t206 138.5t251 51q135 0 251.5 -50t207.5 -141l-88 -86q-72 72 -166.5 113t-204.5 41q-109 0 -204 -41t-167 -112.5t-112.5 -167t-40.5 -203.5q0 -109 40.5 -204t112.5 -167t167 -113t204 -41q92 0 176 31t151.5 84t114.5 127t68 160h-510 v123h647q0 -133 -51 -251t-138 -206t-205 -139t-253 -51q-133 0 -251 51t-206 139t-139 206t-51 251z" />
<glyph unicode="H" horiz-adv-x="1054" d="M72 0v1264h123v-553h665v553h123v-1264h-123v588h-665v-588h-123z" />
<glyph unicode="I" horiz-adv-x="266" d="M72 0v1264h123v-1264h-123z" />
<glyph unicode="J" horiz-adv-x="720" d="M72 100l88 86q29 -29 67.5 -46t83.5 -17t84 16.5t68 46t46 68.5t17 84v926h123v-926q0 -70 -26.5 -131.5t-72.5 -107.5t-107.5 -72.5t-131.5 -26.5t-131 26.5t-108 73.5z" />
<glyph unicode="K" horiz-adv-x="1036" d="M72 0v1264h123v-600l557 600h168l-476 -512l521 -752h-150l-457 659l-163 -176v-483h-123z" />
<glyph unicode="L" horiz-adv-x="819" d="M72 338v926h123v-926q0 -45 16 -84t46 -68.5t69 -46t84 -16.5h338v-123h-338q-70 0 -131.5 26.5t-107.5 72.5t-72.5 107.5t-26.5 131.5z" />
<glyph unicode="M" horiz-adv-x="1288" d="M72 0v1278l573 -776l572 776v-1278h-123v905l-449 -610l-450 610v-905h-123z" />
<glyph unicode="N" horiz-adv-x="1069" d="M72 0v1278l802 -956v942h123v-1280l-802 956v-940h-123z" />
<glyph unicode="O" horiz-adv-x="1437" d="M72 631q0 133 51 250.5t139 206t206 139.5t251 51q135 0 253 -51t205 -139.5t138 -206t51 -250.5q0 -135 -51 -253t-138 -205t-205 -138t-253 -51q-133 0 -251 51t-206 138t-139 205t-51 253zM195 631q0 -109 40.5 -204t112.5 -167t167 -113t204 -41t205 41t166.5 113 t111.5 167t41 204t-41 204t-111.5 166.5t-166.5 112.5t-205 41t-204 -41t-167 -112.5t-112.5 -167t-40.5 -203.5z" />
<glyph unicode="P" horiz-adv-x="1026" d="M72 0v1264h544q70 0 131.5 -27t107.5 -72t72.5 -107.5t26.5 -131.5q0 -70 -26.5 -131.5t-72.5 -107.5t-107.5 -72.5t-131.5 -26.5h-421v-588h-123zM195 711h421q45 0 84 16t68 46t46 69t17 84t-17 84t-46 67.5t-67.5 46t-84.5 17.5h-421v-430z" />
<glyph unicode="Q" horiz-adv-x="1437" d="M72 633q0 133 51 250.5t138 206t205 139.5t253 51q133 0 250.5 -51t206 -139.5t139.5 -206t51 -250.5q0 -141 -54.5 -261t-148.5 -210q76 -72 123 -162h-145q-16 23 -36 44.5t-42 41.5q-74 -47 -161 -73.5t-183 -26.5q-135 0 -253 51t-205 138t-138 205t-51 253zM195 633 q0 -109 40.5 -204t112.5 -167t167 -112.5t204 -40.5q127 0 229 53q-102 53 -229 53v123q96 0 183 -26.5t161 -73.5q84 72 132 174t48 221q0 109 -41 204t-112.5 166.5t-167 112.5t-203.5 41q-109 0 -204 -41t-167 -112.5t-112.5 -167t-40.5 -203.5z" />
<glyph unicode="R" horiz-adv-x="1026" d="M72 0v1264h544q70 0 131.5 -27t107.5 -72t72.5 -107.5t26.5 -131.5q0 -70 -26.5 -131.5t-72.5 -107.5t-107.5 -72.5t-131.5 -26.5h-4l342 -588h-141l-342 588h-276v-588h-123zM195 711h421q45 0 84 16t68 46t46 69t17 84t-17 84t-46 67.5t-67.5 46t-84.5 17.5h-421v-430z " />
<glyph unicode="S" horiz-adv-x="839" d="M72 334h127q0 -47 17 -87t47 -71t70 -48t87 -17q45 0 86 17t71.5 48t48 71t17.5 87q0 55 -25.5 102t-66.5 78q-78 55 -141 102q-53 41 -102.5 77t-61.5 46q-59 41 -92 105.5t-33 136.5q0 61 23.5 116.5t64.5 95.5t95.5 63.5t115.5 23.5t116.5 -23.5t95.5 -63.5 t63.5 -95.5t23.5 -116.5h-125q0 72 -51 122t-123 50t-122 -50t-50 -122q0 -43 18.5 -80t50.5 -59l312 -230q63 -47 101 -119.5t38 -158.5q0 -72 -27.5 -135.5t-75 -110.5t-110.5 -74.5t-135 -27.5t-135.5 27.5t-110.5 74.5t-74.5 110.5t-27.5 135.5z" />
<glyph unicode="T" horiz-adv-x="1054" d="M72 1141v123h911v-123h-395v-1141h-123v1141h-393z" />
<glyph unicode="U" horiz-adv-x="1054" d="M72 440v824h123v-824q0 -70 26.5 -130t71.5 -105t105.5 -70.5t129.5 -25.5q70 0 130.5 25.5t105.5 70.5t70.5 105.5t25.5 129.5v824h123v-824q0 -94 -36 -177t-97.5 -144.5t-144 -97t-177.5 -35.5q-94 0 -177 35.5t-145.5 97t-98 144.5t-35.5 177z" />
<glyph unicode="V" horiz-adv-x="1282" d="M72 1264h135l434 -977l434 977h135l-569 -1278z" />
<glyph unicode="W" horiz-adv-x="1519" d="M72 1264h127l209 -904l352 758l354 -758l209 904h125l-295 -1278l-393 841l-391 -841z" />
<glyph unicode="X" horiz-adv-x="1179" d="M72 0l442 633l-442 631h151l367 -525l366 525h152l-442 -631l442 -633h-152l-366 526l-367 -526h-151z" />
<glyph unicode="Y" horiz-adv-x="1218" d="M72 1264h149l389 -553l387 553h150l-475 -678v-586h-123v586z" />
<glyph unicode="Z" horiz-adv-x="1179" d="M72 0l798 1141h-737v123h975l-799 -1141h799v-123h-1036z" />
<glyph unicode="[" horiz-adv-x="471" d="M72 -135v1532h327v-123h-204v-1286h204v-123h-327z" />
<glyph unicode="\" horiz-adv-x="745" d="M72 1278h131l471 -1294h-131z" />
<glyph unicode="]" horiz-adv-x="471" d="M72 -12h204v1286h-204v123h327v-1532h-327v123z" />
<glyph unicode="^" horiz-adv-x="1017" d="M72 520l438 758l436 -758h-141l-295 512l-295 -512h-143z" />
<glyph unicode="_" horiz-adv-x="1165" d="M72 -139h1022v-123h-1022v123z" />
<glyph unicode="`" horiz-adv-x="483" d="M72 1278h190l150 -250h-111z" />
<glyph unicode="a" d="M72 436q0 92 35.5 174t97 143.5t143.5 97.5t176 36q92 0 172 -33t140 -92v110h122v-872h-122v111q-59 -59 -139.5 -93t-172.5 -34q-94 0 -176 35.5t-143.5 97t-97 143.5t-35.5 176zM195 436q0 -68 25.5 -128t70.5 -105t105.5 -71t127.5 -26q111 0 195 65t117 163v205 q-33 98 -117 161.5t-195 63.5q-68 0 -128 -25.5t-105 -70.5t-70.5 -104.5t-25.5 -127.5z" />
<glyph unicode="b" d="M72 0v1399h123v-637q61 59 141 92t172 33t174 -36t143.5 -97.5t97 -143.5t35.5 -174q0 -94 -35.5 -176t-97 -143.5t-143.5 -97t-174 -35.5t-172 33.5t-141 93.5v-111h-123zM195 334q33 -98 117.5 -163t195.5 -65q68 0 127 26t104 71t71 105.5t26 127.5q0 68 -26 127.5 t-71 104.5t-104.5 70.5t-126.5 25.5q-111 0 -196 -63.5t-117 -161.5v-205z" />
<glyph unicode="c" horiz-adv-x="915" d="M72 436q0 92 35.5 174t97 143.5t143.5 97.5t176 36t176 -35t144 -96l-88 -88q-45 45 -104.5 70.5t-127.5 25.5t-128 -25.5t-105 -70.5t-70.5 -104.5t-25.5 -127.5t25.5 -128t70.5 -105t105.5 -71t127.5 -26q68 0 127.5 26t104.5 71l88 -86q-61 -61 -143.5 -97t-176.5 -36 t-176 35.5t-143.5 97t-97 143.5t-35.5 176z" />
<glyph unicode="d" d="M72 436q0 92 35.5 174t97 143.5t143.5 97.5t176 36q92 0 171 -33t141 -92v637h122v-1399h-122v111q-61 -59 -140.5 -93t-171.5 -34q-94 0 -176 35.5t-143.5 97t-97 143.5t-35.5 176zM195 436q0 -68 25.5 -128t70.5 -105t105.5 -71t127.5 -26q111 0 195 65t117 163v205 q-33 98 -117 161.5t-195 63.5q-68 0 -128 -25.5t-105 -70.5t-70.5 -104.5t-25.5 -127.5z" />
<glyph unicode="e" horiz-adv-x="1044" d="M74 393q-2 21 -2 41q0 70 22 137q28 86 82.5 153t133.5 110t171 53q21 2 42 2q69 -1 134 -21q84 -26 150.5 -79.5t111 -130t54.5 -166.5l-742 -207q47 -85 133 -135q71 -40 154 -41q18 0 37 2q68 6 125 37.5t98 78.5l94 -77q-55 -66 -132.5 -109t-172.5 -53 q-25 -3 -49 -3q-66 1 -129 21q-86 28 -152.5 82.5t-110.5 133.5t-52 171zM197 406l624 172q-43 92 -132 144q-75 44 -161 44q-17 0 -34 -2q-68 -6 -125.5 -38t-97.5 -80q-41 -48 -61 -110q-15 -47 -15 -96q0 -17 2 -34z" />
<glyph unicode="f" horiz-adv-x="856" d="M72 750v122h135v189q0 70 26.5 131t72.5 107.5t107.5 73t131.5 26.5t131 -26.5t108 -74.5l-88 -86q-29 29 -67.5 46.5t-83.5 17.5t-84 -17.5t-69 -46t-46 -67.5t-16 -84v-189h215v-122h-215v-873h-123v873h-135z" />
<glyph unicode="g" d="M72 436q0 92 35.5 174t97 143.5t143.5 97.5t176 36q92 0 172 -33t140 -92v110h122v-872q0 -98 -36.5 -185t-101 -151.5t-150.5 -101.5t-185 -37q-88 0 -171 23.5t-156 70.5l88 88q53 -29 112.5 -44t122.5 -15q74 0 138.5 27.5t112.5 74.5t76 111.5t28 138.5v111 q-59 -59 -139.5 -93t-172.5 -34q-94 0 -176 35.5t-143.5 97t-97 143.5t-35.5 176zM195 436q0 -68 25.5 -128t70.5 -105t105.5 -71t127.5 -26q111 0 195 65t117 163v205q-33 98 -117 161.5t-195 63.5q-68 0 -128 -25.5t-105 -70.5t-70.5 -104.5t-25.5 -127.5z" />
<glyph unicode="h" horiz-adv-x="864" d="M72 0v1399h123v-600q47 41 108.5 64.5t128.5 23.5q74 0 139.5 -29t114.5 -78t78 -114.5t29 -139.5v-526h-123v526q0 49 -18.5 92.5t-51.5 76t-76 51t-92 18.5t-92 -18.5t-75 -51t-51 -76t-19 -92.5v-526h-123z" />
<glyph unicode="i" horiz-adv-x="315" d="M72 1075q0 35 25.5 60.5t60.5 25.5t60.5 -25.5t25.5 -60.5t-25.5 -60.5t-60.5 -25.5t-60.5 25.5t-25.5 60.5zM96 0v872h123v-872h-123z" />
<glyph unicode="j" horiz-adv-x="743" d="M72 -375l86 86q29 -29 67.5 -46t83.5 -17t84 16.5t67.5 46t46 68.5t17.5 84v1009h123v-1009q0 -70 -26.5 -131.5t-72.5 -107.5t-107.5 -72.5t-131.5 -26.5t-131 26.5t-106 73.5zM500 1075q0 35 25.5 60.5t60.5 25.5t60.5 -25.5t25.5 -60.5t-25.5 -60.5t-60.5 -25.5 t-60.5 25.5t-25.5 60.5z" />
<glyph unicode="k" horiz-adv-x="825" d="M72 0v1399h123v-848l299 321h168l-293 -315l385 -557h-150l-321 465l-88 -94v-371h-123z" />
<glyph unicode="l" horiz-adv-x="481" d="M72 322v1077h123v-1077q0 -45 16 -84t46 -69t69 -46.5t84 -16.5v-122q-70 0 -131.5 26.5t-107.5 72.5t-72.5 107.5t-26.5 131.5z" />
<glyph unicode="m" horiz-adv-x="1462" d="M72 0v872h123v-73q47 41 107 64.5t130 23.5q94 0 172 -43t127 -115q47 72 126 115t173 43q74 0 139.5 -29t114.5 -78t78 -114.5t29 -139.5v-526h-123v526q0 49 -19.5 92.5t-51.5 76t-75 51t-92 18.5t-92 -18.5t-76 -51t-51 -76t-18 -92.5v-526h-123v526q0 49 -18.5 92.5 t-51.5 76t-76 51t-92 18.5t-92 -18.5t-76 -51t-51 -76t-18 -92.5v-526h-123z" />
<glyph unicode="n" horiz-adv-x="864" d="M72 0v872h123v-73q47 41 107 64.5t130 23.5q74 0 139.5 -29t114.5 -78t78 -114.5t29 -139.5v-526h-123v526q0 49 -19.5 92.5t-51.5 76t-75 51t-92 18.5t-92 -18.5t-76 -51t-51 -76t-18 -92.5v-526h-123z" />
<glyph unicode="o" horiz-adv-x="1046" d="M72 436q0 92 34.5 174t96 143.5t143.5 97.5t176 36t176 -36t143.5 -97.5t97.5 -143.5t36 -174q0 -94 -36 -176t-97.5 -143.5t-143.5 -97t-176 -35.5t-176 35.5t-143.5 97t-96 143.5t-34.5 176zM195 436q0 -68 25.5 -128t69.5 -105t104.5 -71t127.5 -26q68 0 128.5 26 t105.5 71t70.5 105.5t25.5 127.5q0 68 -25.5 127.5t-70.5 104.5t-105.5 70.5t-128.5 25.5t-128 -25.5t-104 -70.5t-69.5 -104.5t-25.5 -127.5z" />
<glyph unicode="p" d="M72 -459v1331h123v-110q59 59 139 92t172 33q94 0 176 -36t143.5 -97.5t97 -143.5t35.5 -174q0 -94 -35.5 -176t-97 -143.5t-143.5 -97t-176 -35.5q-92 0 -172 33.5t-139 93.5v-570h-123zM195 334q33 -98 116.5 -163t194.5 -65q68 0 128 26t105 71t71 105.5t26 127.5 q0 68 -26 127.5t-71 104.5t-105.5 70.5t-127.5 25.5q-111 0 -195 -63.5t-116 -161.5v-205z" />
<glyph unicode="q" d="M72 436q0 92 35.5 174t97 143.5t143.5 97.5t176 36q92 0 172 -33t140 -92v110h122v-1331h-122v570q-59 -59 -139.5 -93t-172.5 -34q-94 0 -176 35.5t-143.5 97t-97 143.5t-35.5 176zM195 436q0 -68 25.5 -128t70.5 -105t105.5 -71t127.5 -26q111 0 195 65t117 163v205 q-33 98 -117 161.5t-195 63.5q-68 0 -128 -25.5t-105 -70.5t-70.5 -104.5t-25.5 -127.5z" />
<glyph unicode="r" horiz-adv-x="559" d="M72 0v872h123v-106q57 57 131.5 89t160.5 32v-123q-59 0 -112 -22.5t-93 -61.5t-63.5 -92t-23.5 -113v-475h-123z" />
<glyph unicode="s" horiz-adv-x="651" d="M72 238h123q0 -53 38.5 -91t92.5 -38q53 0 91 37.5t38 91.5q0 33 -14.5 59.5t-37.5 44.5l-29 22q-28 21 -64 46.5t-69.5 50t-41.5 31.5q-41 31 -67 76.5t-26 101.5q0 45 17.5 85t47.5 68.5t70 46t85 17.5t84 -17.5t68.5 -46t47 -68.5t17.5 -85h-125q0 39 -26.5 66.5 t-65.5 27.5q-41 0 -68 -27.5t-27 -66.5q0 -47 39 -76l207 -152q47 -35 75 -88t28 -116q0 -53 -20.5 -99.5t-54.5 -80t-81 -54t-98 -20.5q-53 0 -99.5 20.5t-81 54t-54 79.5t-19.5 100z" />
<glyph unicode="t" horiz-adv-x="616" d="M72 750v122h135v392h123v-392h215v-122h-215v-428q0 -45 16 -84t46 -69t69 -46.5t84 -16.5v-122q-70 0 -131.5 26.5t-107.5 72.5t-72.5 107.5t-26.5 131.5v428h-135z" />
<glyph unicode="u" horiz-adv-x="864" d="M72 344v528h123v-528q0 -49 18 -92t51 -76t76 -51.5t92 -18.5t92 18.5t76 51.5t51.5 76t18.5 92v528h123v-872h-123v74q-47 -41 -107.5 -65.5t-130.5 -24.5q-74 0 -139.5 28.5t-114.5 77.5t-77.5 114.5t-28.5 139.5z" />
<glyph unicode="v" horiz-adv-x="933" d="M72 872h133l262 -585l260 585h135l-395 -888z" />
<glyph unicode="w" horiz-adv-x="1167" d="M72 872h127l145 -544l240 463l237 -463l148 544h127l-238 -888l-274 536l-275 -536z" />
<glyph unicode="x" horiz-adv-x="903" d="M72 0l305 436l-305 436h149l232 -329l229 329h149l-305 -436l305 -436h-149l-229 328l-232 -328h-149z" />
<glyph unicode="y" horiz-adv-x="1054" d="M72 872h133l323 -720l320 720h135l-594 -1331h-133l205 459z" />
<glyph unicode="z" horiz-adv-x="905" d="M72 0l526 750h-496v122h732l-525 -749h525v-123h-762z" />
<glyph unicode="{" horiz-adv-x="512" d="M72 571v123q53 0 88 36t35 87v336q0 51 19 95t53 78t78 53.5t95 19.5v-123q-51 0 -87 -36t-36 -87v-336q0 -55 -21.5 -102t-59.5 -82q39 -35 60 -82t21 -102v-338q0 -51 36 -87t87 -36v-123q-51 0 -95 19.5t-78 53t-53 77.5t-19 96v338q0 51 -35 86.5t-88 35.5z" />
<glyph unicode="|" horiz-adv-x="266" d="M72 -135v1534h123v-1534h-123z" />
<glyph unicode="}" horiz-adv-x="512" d="M72 -12q51 0 87 35.5t36 87.5v338q0 55 21.5 102t59.5 82q-39 35 -60 82t-21 102v336q0 51 -36 87t-87 36v123q51 0 95 -19.5t78 -53.5t53 -78t19 -95v-336q0 -51 35 -87t88 -36v-123q-53 0 -88 -35.5t-35 -86.5v-338q0 -51 -19 -95.5t-53 -78t-78 -53t-95 -19.5v123z " />
<glyph unicode="~" horiz-adv-x="925" d="M72 582q45 96 103 126.5t122.5 26.5t131.5 -28.5t126 -39t108.5 -4t79.5 75.5l111 -53q-47 -102 -106.5 -134t-123 -26t-128 33t-123 43t-107.5 6t-82 -80z" />
<glyph unicode="&#xa1;" horiz-adv-x="339" d="M72 825q0 -43 29.5 -71.5t70.5 -28.5t68.5 28.5t27.5 71.5q0 41 -27.5 69t-68.5 28t-70.5 -28t-29.5 -69zM78 66v-408h184v408l-31 536h-122z" />
<glyph unicode="&#xa2;" horiz-adv-x="915" d="M72 436q0 84 29.5 159t80.5 134t121 99t150 53v133h122v-129q78 -10 147 -43t122 -86l-88 -88q-45 45 -104.5 70.5t-127.5 25.5t-128 -25.5t-105 -70.5t-70.5 -104.5t-25.5 -127.5t25.5 -128t70.5 -105t105.5 -71t127.5 -26q68 0 127.5 26t104.5 71l88 -86 q-53 -53 -122 -87t-147 -42v-193h-122v195q-80 12 -150 52t-121 99.5t-80.5 135t-29.5 159.5z" />
<glyph unicode="&#xa3;" horiz-adv-x="1075" d="M72 0v125q74 12 131 53t93 99.5t45 128t-15 141.5h-254v123h194q-45 106 -31.5 214.5t72 196.5t152.5 142.5t213 54.5q92 0 172 -35t139 -94l-88 -86q-43 43 -100.5 67.5t-122.5 24.5q-94 0 -166 -46t-111 -116.5t-39 -156.5t47 -166h385v-123h-333q29 -117 -5 -229.5 t-120 -194.5h674v-123h-932z" />
<glyph unicode="&#xa4;" d="M72 631q0 152 90 266l-74 74l88 86l72 -72q57 43 125.5 66.5t140.5 23.5q74 0 141.5 -23.5t124.5 -66.5l74 72l86 -86l-74 -74q92 -117 92 -266q0 -72 -23.5 -140.5t-66.5 -123.5l72 -74l-86 -86l-74 72q-57 -43 -124.5 -67t-141.5 -24q-72 0 -140.5 24t-125.5 67 l-72 -72l-88 86l74 74q-45 55 -67.5 123.5t-22.5 140.5zM195 631q0 -66 25.5 -124t68.5 -101.5t101 -69t124 -25.5q68 0 126 25.5t101 69t69 101.5t26 124q0 68 -26 126t-69 101t-101 68.5t-126 25.5q-66 0 -124 -25.5t-101 -68.5t-68.5 -101.5t-25.5 -125.5z" />
<glyph unicode="&#xa5;" horiz-adv-x="1218" d="M72 1264h149l389 -553l387 553h150l-475 -678v-586h-123v586zM137 281v122h946v-122h-946zM137 588v123h946v-123h-946z" />
<glyph unicode="&#xa6;" horiz-adv-x="266" d="M72 356h123v-716h-123v716zM72 664v716h123v-716h-123z" />
<glyph unicode="&#xa7;" horiz-adv-x="839" d="M72 723q0 66 23.5 124t64.5 105q-39 66 -39 148q0 61 23.5 116.5t63.5 95.5t95.5 63.5t116.5 23.5t115.5 -23.5t95.5 -63.5t64.5 -95.5t23.5 -116.5h-127q0 37 -13.5 68.5t-37 55t-55 37t-66.5 13.5q-72 0 -123 -51.5t-51 -122.5q0 -43 19.5 -79t51.5 -60l310 -228 q66 -47 103.5 -120.5t37.5 -159.5q0 -66 -23.5 -125.5t-64.5 -106.5q39 -68 39 -145q0 -61 -23.5 -116.5t-64.5 -95.5t-95.5 -63.5t-115.5 -23.5t-116.5 23.5t-95.5 63.5t-63.5 95t-23.5 117h125q0 -72 51 -123t123 -51q35 0 66.5 13t55 36.5t37 55.5t13.5 69 q0 43 -18.5 78.5t-51.5 60.5l-311 227q-63 47 -101 121t-38 160zM197 723q0 -55 25.5 -102.5t66.5 -77.5q76 -57 139 -105q53 -41 103.5 -76t62.5 -45q47 57 47 136q0 55 -24.5 102t-65.5 78q-78 55 -141 102q-55 41 -104.5 77t-61.5 46q-23 -29 -35 -62.5t-12 -72.5z" />
<glyph unicode="&#xa8;" horiz-adv-x="716" d="M72 1315q0 41 28.5 69.5t69.5 28.5t68.5 -28.5t27.5 -69.5t-27.5 -68.5t-68.5 -27.5t-69.5 27.5t-28.5 68.5zM451 1315q0 41 28.5 69.5t69.5 28.5t68.5 -28.5t27.5 -69.5t-27.5 -68.5t-68.5 -27.5t-69.5 27.5t-28.5 68.5z" />
<glyph unicode="&#xa9;" horiz-adv-x="1439" d="M72 633q0 135 51 253t139 205t206 138t251 51q135 0 253 -51t206 -138t139 -205t51 -253t-51 -253t-139 -206t-206 -139t-253 -51q-133 0 -251 51t-206 139t-139 206t-51 253zM178 633q0 -113 42 -212t116 -173t172 -116t211 -42t211 42t172 116t117 173t43 212t-43 211 t-117 172t-172.5 116t-210.5 42q-113 0 -211 -42t-172 -116t-116 -172.5t-42 -210.5zM340 633q0 80 30.5 150.5t83 122.5t123 83t150.5 31q86 0 154.5 -31t128.5 -90l-76 -76q-43 45 -93 68.5t-114 23.5q-59 0 -109.5 -22.5t-89.5 -60t-60.5 -90t-21.5 -109.5 q0 -59 21.5 -111.5t60.5 -90.5t89.5 -60.5t109.5 -22.5q63 0 113.5 23.5t93.5 68.5l76 -75q-59 -59 -128 -90t-155 -31q-80 0 -150.5 30.5t-123 83t-83 123t-30.5 152.5z" />
<glyph unicode="&#xaa;" horiz-adv-x="823" d="M71 926q0 71 27.5 133.5t74.5 110t110 75t135 27.5q70 0 131.5 -25.5t107.5 -70.5v84h94v-668h-94v85q-45 -45 -107 -71t-132 -26q-72 0 -135 27t-110 74t-74.5 110t-27.5 135zM166 926q0 -52 19.5 -98t54 -80.5t80.5 -54.5t98 -20q85 0 149.5 50t89.5 125v157 q-25 75 -89.5 124t-149.5 49q-52 0 -98 -20t-80.5 -54.5t-54 -80t-19.5 -97.5z" />
<glyph unicode="&#xab;" horiz-adv-x="894" d="M72 516l270 377h145l-272 -377l274 -377h-147zM408 516l270 377h145l-272 -377l272 -377h-145z" />
<glyph unicode="&#xac;" horiz-adv-x="1200" d="M72 750v122h1056v-569h-122v447h-934z" />
<glyph unicode="&#xad;" horiz-adv-x="655" d="M72 571v123h512v-123h-512z" />
<glyph unicode="&#xae;" horiz-adv-x="1439" d="M72 633q0 135 51 253t139 205t206 138t251 51q135 0 254 -51t206 -138t138 -205t51 -253t-51 -253t-138 -206t-206 -139t-254 -51q-133 0 -251 51t-206 139t-139 206t-51 253zM178 633q0 -113 43 -212t117 -173t172 -116t209 -42q113 0 212 42t173 116t117 173t43 212 t-43 211t-117 172t-173.5 116t-211.5 42q-111 0 -209 -42t-172 -116t-117 -172.5t-43 -210.5zM457 254v756h323q43 0 82 -16.5t67.5 -45t45 -67.5t16.5 -82q0 -80 -52 -140.5t-132 -72.5l192 -332h-118l-193 330h-129v-330h-102zM559 688h221q45 0 77 32t32 79 q0 45 -32 76.5t-77 31.5h-221v-219z" />
<glyph unicode="&#xaf;" horiz-adv-x="1705" />
<glyph unicode="&#xb0;" horiz-adv-x="686" d="M72 995q0 59 21.5 109.5t58 87.5t87 58.5t107.5 21.5q63 0 112.5 -22.5t84.5 -59.5t53 -85t18 -99q0 -61 -22.5 -112.5t-61 -87.5t-88 -55.5t-102.5 -19.5q-59 0 -109.5 21.5t-85 57.5t-54 84t-19.5 101zM182 995q0 -72 45 -120t115 -48q72 0 117 50.5t45 126.5 q0 29 -9.5 59.5t-29 55t-50 41t-75.5 16.5q-39 0 -68.5 -15.5t-49 -41t-30 -58.5t-10.5 -66z" />
<glyph unicode="&#xb1;" horiz-adv-x="1040" d="M72 0v123h897v-123h-897zM72 651v123h387v387h123v-387h387v-123h-387v-387h-123v387h-387z" />
<glyph unicode="&#xb2;" horiz-adv-x="583" d="M72 590l317 411q23 33 23 72q0 49 -35 84t-84 35q-53 0 -86 -37t-33 -90h-80q0 86 55.5 146.5t143.5 60.5q84 0 142.5 -57.5t58.5 -141.5q0 -68 -41 -121l-217 -282h276v-80h-440z" />
<glyph unicode="&#xb3;" horiz-adv-x="557" d="M72 797h80q0 -55 33.5 -95t93.5 -40q53 0 88.5 36.5t35.5 87.5q0 53 -35.5 90t-88.5 37h-41v80h41q41 0 69.5 29t28.5 70t-29 70.5t-69 29.5q-47 0 -74 -32t-27 -77h-80q0 78 50.5 133.5t130.5 55.5q74 0 127 -52.5t53 -127.5q0 -82 -64 -136q90 -61 90 -170 q0 -43 -16 -79.5t-45 -65.5t-65.5 -45t-79.5 -16q-47 0 -85 17t-65 47t-42 69t-15 84z" />
<glyph unicode="&#xb4;" horiz-adv-x="481" d="M72 1120l161 279h177l-226 -279h-112z" />
<glyph unicode="&#xb5;" horiz-adv-x="864" d="M72 -340v1212h123v-528q0 -49 18 -92t51 -76t76 -51.5t92 -18.5t92 18.5t76 51.5t51.5 76t18.5 92v528h123v-872h-123v74q-47 -41 -108.5 -65.5t-129.5 -24.5q-70 0 -130 23.5t-107 66.5v-414h-123z" />
<glyph unicode="&#xb6;" horiz-adv-x="1046" d="M72 938q0 68 25.5 127t70.5 103t104.5 70t126.5 26h576v-123h-123v-1481h-123v1481h-184v-1481h-123v950h-23q-68 0 -127 26t-104 70t-70.5 104t-25.5 128z" />
<glyph unicode="&#xb7;" horiz-adv-x="387" d="M72 543q0 53 35.5 88t87.5 35q51 0 85.5 -35t34.5 -88q0 -51 -34.5 -86t-85.5 -35t-87 35t-36 86z" />
<glyph unicode="&#xb8;" horiz-adv-x="444" d="M72 -305l14 80q14 -2 46 -4t63.5 1t56 14t24.5 34q0 20 -15 31.5t-35.5 16.5t-42 6t-33.5 1l40 145h82l-22 -77q53 -8 88 -39t35 -84t-33 -81t-81 -38t-99 -10t-88 4z" />
<glyph unicode="&#xb9;" horiz-adv-x="288" d="M72 1184v80h145v-674h-82v594h-63z" />
<glyph unicode="&#xba;" horiz-adv-x="835" d="M71 926q0 71 26.5 133.5t73.5 110t110 75t135 27.5t135 -27.5t110 -75t74.5 -110t27.5 -133.5q0 -72 -27.5 -135t-74.5 -110t-110 -74t-135 -27t-135 27t-110 74t-73.5 110t-26.5 135zM165 926q0 -52 20 -98t53.5 -80.5t80 -54.5t97.5 -20q52 0 98.5 20t81 54.5t54 81 t19.5 97.5q0 52 -19.5 97.5t-54 80t-81 54.5t-98.5 20t-98 -20t-79.5 -54.5t-53.5 -80t-20 -97.5z" />
<glyph unicode="&#xbb;" horiz-adv-x="894" d="M72 139l272 377l-272 377h145l270 -377l-270 -377h-145zM406 139l274 377l-272 377h145l270 -377l-270 -377h-147z" />
<glyph unicode="&#xbc;" horiz-adv-x="1353" d="M72 1155v109h186v-824h-108v715h-78zM324 -14l522 1294h133l-522 -1294h-133zM754 154l452 720v-612h76v-108h-76v-154h-108v154h-344zM950 262h148v234z" />
<glyph unicode="&#xbd;" horiz-adv-x="1470" d="M72 1155v109h186v-824h-108v715h-78zM317 -14l523 1294h133l-522 -1294h-134zM852 0l387 504q23 29 28 65.5t-10 71.5q-16 37 -49.5 61.5t-77.5 24.5q-61 0 -97 -44t-40 -110h-108q0 51 17.5 98.5t50 84.5t77.5 58.5t100 21.5q72 0 134.5 -40t93.5 -112 q25 -57 16.5 -123.5t-49.5 -120.5l-254 -331h328v-109h-547z" />
<glyph unicode="&#xbe;" horiz-adv-x="1546" d="M72 705h108q0 -61 40 -111.5t106 -50.5q57 0 102 43t45 104q0 57 -47 105.5t-154 48.5v90q88 0 128 38t40 85q0 45 -32.5 79.5t-81.5 34.5q-53 0 -81 -37.5t-32 -93.5h-109q0 45 15.5 89.5t44.5 77t69.5 53t92.5 20.5q82 0 135 -41t73.5 -100.5t7 -126t-64.5 -117.5 q51 -29 78 -87.5t27 -117.5q0 -49 -17.5 -96t-50.5 -82t-81 -56.5t-107 -21.5q-57 0 -103.5 20.5t-78 57.5t-50 86t-22.5 107zM512 -14l522 1294h133l-522 -1294h-133zM946 154l453 720v-612h76v-108h-76v-154h-109v154h-344zM1143 262h147v234z" />
<glyph unicode="&#xbf;" horiz-adv-x="856" d="M72 14q0 98 49 179t131 129q53 33 84 86t31 116v76h122v-76q0 -98 -49 -180t-129 -129q-53 -31 -85 -85t-32 -116q0 -49 18.5 -91t50.5 -73.5t74 -50t91 -18.5t91 18.5t74 50t50 73.5t18 91h123q0 -74 -27.5 -139t-76.5 -113.5t-113.5 -76t-138.5 -27.5t-138.5 27.5 t-113.5 76t-76.5 114t-27.5 138.5zM330 823q0 41 28.5 69t69.5 28t69.5 -28t28.5 -69q0 -43 -28.5 -71.5t-69.5 -28.5t-69.5 28.5t-28.5 71.5z" />
<glyph unicode="&#xc0;" horiz-adv-x="1282" d="M72 0l569 1280l569 -1280h-135l-117 262h-636l-117 -262h-133zM377 385h526l-262 592zM471 1649h190l150 -250h-111z" />
<glyph unicode="&#xc1;" horiz-adv-x="1282" d="M72 0l569 1280l569 -1280h-135l-117 262h-636l-117 -262h-133zM377 385h526l-262 592zM473 1399l161 279h177l-226 -279h-112z" />
<glyph unicode="&#xc2;" horiz-adv-x="1282" d="M72 0l569 1280l569 -1280h-135l-117 262h-636l-117 -262h-133zM377 385h526l-262 592zM434 1399l207 291l206 -291h-123l-83 119l-84 -119h-123z" />
<glyph unicode="&#xc3;" horiz-adv-x="1282" d="M72 0l569 1280l569 -1280h-135l-117 262h-636l-117 -262h-133zM353 1477q47 82 129 92q37 4 71.5 -4t68.5 -20.5t69.5 -22.5t72.5 -10q23 0 40.5 11t45.5 48l80 -80q-27 -47 -61.5 -72.5t-87.5 -25.5q-35 0 -67 10t-63.5 23.5t-63.5 23.5t-66 10q-23 0 -41.5 -11 t-48.5 -50zM377 385h526l-262 592z" />
<glyph unicode="&#xc4;" horiz-adv-x="1282" d="M72 0l569 1280l569 -1280h-135l-117 262h-636l-117 -262h-133zM355 1495q0 41 28.5 69.5t69.5 28.5t68.5 -28.5t27.5 -69.5t-27.5 -68.5t-68.5 -27.5t-69.5 27.5t-28.5 68.5zM377 385h526l-262 592zM734 1495q0 41 28.5 69.5t69.5 28.5t68.5 -28.5t27.5 -69.5 t-27.5 -68.5t-68.5 -27.5t-69.5 27.5t-28.5 68.5z" />
<glyph unicode="&#xc5;" horiz-adv-x="1282" d="M72 0l569 1280l569 -1280h-135l-117 262h-636l-117 -262h-133zM377 385h526l-262 592zM430 1475q0 43 16 80.5t45 67.5t68 46.5t82 16.5t81.5 -16.5t67.5 -46.5t45.5 -67.5t16.5 -80.5t-16.5 -82t-45.5 -67.5t-67.5 -45t-81.5 -16.5t-82 16.5t-68 45t-45 67.5t-16 82z M534 1475q0 -45 31 -76t76 -31t75.5 31t30.5 76q0 43 -30.5 74.5t-75.5 31.5t-76 -31.5t-31 -74.5z" />
<glyph unicode="&#xc6;" horiz-adv-x="1681" d="M72 0l729 1264h809v-123h-615v-430h492v-123h-492v-465h615v-123h-738v236h-522l-137 -236h-141zM420 358h452v783z" />
<glyph unicode="&#xc7;" horiz-adv-x="1247" d="M72 631q0 135 51 252.5t138 205t205 138.5t253 51t251.5 -50t205.5 -138l-86 -89q-72 72 -167.5 113t-203.5 41q-109 0 -205 -41t-167 -112.5t-111.5 -167t-40.5 -203.5q0 -109 40.5 -204t111.5 -167t167 -113t205 -41t204 41t167 113l86 -86q-88 -88 -205 -139t-252 -51 t-253 51t-205 139t-138 206t-51 251zM473 -305l14 80q14 -2 46 -4t63.5 1t56 14t24.5 34q0 20 -15 31.5t-35.5 16.5t-42 6t-33.5 1l40 145h82l-22 -77q53 -8 88 -39t35 -84t-33 -81t-81 -38t-99 -10t-88 4z" />
<glyph unicode="&#xc8;" horiz-adv-x="880" d="M72 0v1264h737v-123h-614v-430h491v-123h-491v-465h614v-123h-737zM271 1649h190l150 -250h-111z" />
<glyph unicode="&#xc9;" horiz-adv-x="880" d="M72 0v1264h737v-123h-614v-430h491v-123h-491v-465h614v-123h-737zM273 1399l161 279h177l-226 -279h-112z" />
<glyph unicode="&#xca;" horiz-adv-x="880" d="M72 0v1264h737v-123h-614v-430h491v-123h-491v-465h614v-123h-737zM234 1399l207 291l206 -291h-123l-83 119l-84 -119h-123z" />
<glyph unicode="&#xcb;" horiz-adv-x="880" d="M72 0v1264h737v-123h-614v-430h491v-123h-491v-465h614v-123h-737zM154 1495q0 41 28.5 69.5t69.5 28.5t68.5 -28.5t27.5 -69.5t-27.5 -68.5t-68.5 -27.5t-69.5 27.5t-28.5 68.5zM533 1495q0 41 28.5 69.5t69.5 28.5t68.5 -28.5t27.5 -69.5t-27.5 -68.5t-68.5 -27.5 t-69.5 27.5t-28.5 68.5z" />
<glyph unicode="&#xcc;" horiz-adv-x="483" d="M72 1649h190l150 -250h-111zM181 0v1264h123v-1264h-123z" />
<glyph unicode="&#xcd;" horiz-adv-x="481" d="M72 1399l161 279h177l-226 -279h-112zM178 0v1264h123v-1264h-123z" />
<glyph unicode="&#xce;" horiz-adv-x="557" d="M72 1399l207 291l206 -291h-123l-83 119l-84 -119h-123zM217 0v1264h123v-1264h-123z" />
<glyph unicode="&#xcf;" horiz-adv-x="716" d="M72 1495q0 41 28.5 69.5t69.5 28.5t68.5 -28.5t27.5 -69.5t-27.5 -68.5t-68.5 -27.5t-69.5 27.5t-28.5 68.5zM297 0v1264h123v-1264h-123zM451 1495q0 41 28.5 69.5t69.5 28.5t68.5 -28.5t27.5 -69.5t-27.5 -68.5t-68.5 -27.5t-69.5 27.5t-28.5 68.5z" />
<glyph unicode="&#xd0;" horiz-adv-x="1370" d="M72 614v123h512v-123h-512zM258 0v1264h408q131 0 246.5 -50.5t201.5 -136.5t135 -200.5t49 -245.5t-49 -246t-135 -201t-201.5 -135t-246.5 -49h-408zM381 123h285q104 0 197 40t163 108.5t110 161.5t40 198q0 104 -40 197.5t-110 163t-163 109.5t-197 40h-285v-1018z " />
<glyph unicode="&#xd1;" horiz-adv-x="1069" d="M72 0v1278l802 -956v942h123v-1280l-802 956v-940h-123zM246 1477q47 82 129 92q37 4 71.5 -4t68.5 -20.5t69.5 -22.5t72.5 -10q23 0 40.5 11t45.5 48l80 -80q-27 -47 -61.5 -72.5t-87.5 -25.5q-35 0 -67 10t-63.5 23.5t-63.5 23.5t-66 10q-23 0 -41.5 -11t-48.5 -50z " />
<glyph unicode="&#xd2;" horiz-adv-x="1437" d="M72 631q0 133 51 250.5t139 206t206 139.5t251 51q135 0 253 -51t205 -139.5t138 -206t51 -250.5q0 -135 -51 -253t-138 -205t-205 -138t-253 -51q-133 0 -251 51t-206 138t-139 205t-51 253zM195 631q0 -109 40.5 -204t112.5 -167t167 -113t204 -41t205 41t166.5 113 t111.5 167t41 204t-41 204t-111.5 166.5t-166.5 112.5t-205 41t-204 -41t-167 -112.5t-112.5 -167t-40.5 -203.5zM549 1649h190l150 -250h-111z" />
<glyph unicode="&#xd3;" horiz-adv-x="1437" d="M72 631q0 133 51 250.5t139 206t206 139.5t251 51q135 0 253 -51t205 -139.5t138 -206t51 -250.5q0 -135 -51 -253t-138 -205t-205 -138t-253 -51q-133 0 -251 51t-206 138t-139 205t-51 253zM195 631q0 -109 40.5 -204t112.5 -167t167 -113t204 -41t205 41t166.5 113 t111.5 167t41 204t-41 204t-111.5 166.5t-166.5 112.5t-205 41t-204 -41t-167 -112.5t-112.5 -167t-40.5 -203.5zM551 1399l161 279h177l-226 -279h-112z" />
<glyph unicode="&#xd4;" horiz-adv-x="1437" d="M72 631q0 133 51 250.5t139 206t206 139.5t251 51q135 0 253 -51t205 -139.5t138 -206t51 -250.5q0 -135 -51 -253t-138 -205t-205 -138t-253 -51q-133 0 -251 51t-206 138t-139 205t-51 253zM195 631q0 -109 40.5 -204t112.5 -167t167 -113t204 -41t205 41t166.5 113 t111.5 167t41 204t-41 204t-111.5 166.5t-166.5 112.5t-205 41t-204 -41t-167 -112.5t-112.5 -167t-40.5 -203.5zM512 1399l207 291l206 -291h-123l-83 119l-84 -119h-123z" />
<glyph unicode="&#xd5;" horiz-adv-x="1437" d="M72 631q0 133 51 250.5t139 206t206 139.5t251 51q135 0 253 -51t205 -139.5t138 -206t51 -250.5q0 -135 -51 -253t-138 -205t-205 -138t-253 -51q-133 0 -251 51t-206 138t-139 205t-51 253zM195 631q0 -109 40.5 -204t112.5 -167t167 -113t204 -41t205 41t166.5 113 t111.5 167t41 204t-41 204t-111.5 166.5t-166.5 112.5t-205 41t-204 -41t-167 -112.5t-112.5 -167t-40.5 -203.5zM430 1477q47 82 129 92q37 4 71.5 -4t68.5 -20.5t69.5 -22.5t72.5 -10q23 0 40.5 11t45.5 48l80 -80q-27 -47 -61.5 -72.5t-87.5 -25.5q-35 0 -67 10 t-63.5 23.5t-63.5 23.5t-66 10q-23 0 -41.5 -11t-48.5 -50z" />
<glyph unicode="&#xd6;" horiz-adv-x="1437" d="M72 631q0 133 51 250.5t139 206t206 139.5t251 51q135 0 253 -51t205 -139.5t138 -206t51 -250.5q0 -135 -51 -253t-138 -205t-205 -138t-253 -51q-133 0 -251 51t-206 138t-139 205t-51 253zM195 631q0 -109 40.5 -204t112.5 -167t167 -113t204 -41t205 41t166.5 113 t111.5 167t41 204t-41 204t-111.5 166.5t-166.5 112.5t-205 41t-204 -41t-167 -112.5t-112.5 -167t-40.5 -203.5zM432 1495q0 41 28.5 69.5t69.5 28.5t68.5 -28.5t27.5 -69.5t-27.5 -68.5t-68.5 -27.5t-69.5 27.5t-28.5 68.5zM811 1495q0 41 28.5 69.5t69.5 28.5t68.5 -28.5 t27.5 -69.5t-27.5 -68.5t-68.5 -27.5t-69.5 27.5t-28.5 68.5z" />
<glyph unicode="&#xd7;" horiz-adv-x="866" d="M72 360l274 273l-274 274l88 88l272 -274l275 274l88 -88l-275 -274l275 -273l-88 -88l-275 275l-272 -275z" />
<glyph unicode="&#xd8;" horiz-adv-x="1458" d="M72 -55l196 233q-86 88 -136 205t-50 250q0 135 51 253t138 205t205 138t253 51q102 0 195.5 -30.5t171.5 -84.5l196 234l94 -78l-196 -234q86 -88 136 -204.5t50 -249.5t-51 -251t-139 -206t-206 -139t-251 -51q-104 0 -196.5 30.5t-170.5 83.5l-196 -233zM205 633 q0 -104 38 -196.5t105 -162.5l668 797q-127 86 -287 86q-109 0 -204 -41t-166.5 -112.5t-112.5 -167t-41 -203.5zM442 195q127 -86 287 -86q109 0 204 40.5t166.5 112.5t112.5 167t41 204q0 104 -38.5 196.5t-104.5 161.5z" />
<glyph unicode="&#xd9;" horiz-adv-x="1054" d="M72 440v824h123v-824q0 -70 26.5 -130t71.5 -105t105.5 -70.5t129.5 -25.5q70 0 130.5 25.5t105.5 70.5t70.5 105.5t25.5 129.5v824h123v-824q0 -94 -36 -177t-97.5 -144.5t-144 -97t-177.5 -35.5q-94 0 -177 35.5t-145.5 97t-98 144.5t-35.5 177zM357 1649h190l150 -250 h-111z" />
<glyph unicode="&#xda;" horiz-adv-x="1054" d="M72 440v824h123v-824q0 -70 26.5 -130t71.5 -105t105.5 -70.5t129.5 -25.5q70 0 130.5 25.5t105.5 70.5t70.5 105.5t25.5 129.5v824h123v-824q0 -94 -36 -177t-97.5 -144.5t-144 -97t-177.5 -35.5q-94 0 -177 35.5t-145.5 97t-98 144.5t-35.5 177zM359 1399l161 279h177 l-226 -279h-112z" />
<glyph unicode="&#xdb;" horiz-adv-x="1054" d="M72 440v824h123v-824q0 -70 26.5 -130t71.5 -105t105.5 -70.5t129.5 -25.5q70 0 130.5 25.5t105.5 70.5t70.5 105.5t25.5 129.5v824h123v-824q0 -94 -36 -177t-97.5 -144.5t-144 -97t-177.5 -35.5q-94 0 -177 35.5t-145.5 97t-98 144.5t-35.5 177zM320 1399l207 291 l206 -291h-123l-83 119l-84 -119h-123z" />
<glyph unicode="&#xdc;" horiz-adv-x="1054" d="M72 440v824h123v-824q0 -70 26.5 -130t71.5 -105t105.5 -70.5t129.5 -25.5q70 0 130.5 25.5t105.5 70.5t70.5 105.5t25.5 129.5v824h123v-824q0 -94 -36 -177t-97.5 -144.5t-144 -97t-177.5 -35.5q-94 0 -177 35.5t-145.5 97t-98 144.5t-35.5 177zM240 1495 q0 41 28.5 69.5t69.5 28.5t68.5 -28.5t27.5 -69.5t-27.5 -68.5t-68.5 -27.5t-69.5 27.5t-28.5 68.5zM619 1495q0 41 28.5 69.5t69.5 28.5t68.5 -28.5t27.5 -69.5t-27.5 -68.5t-68.5 -27.5t-69.5 27.5t-28.5 68.5z" />
<glyph unicode="&#xdd;" horiz-adv-x="1218" d="M72 1264h149l389 -553l387 553h150l-475 -678v-586h-123v586zM441 1399l161 279h177l-226 -279h-112z" />
<glyph unicode="&#xde;" horiz-adv-x="1026" d="M72 0v1264h123v-269h421q70 0 131.5 -26.5t107.5 -71.5t72.5 -107.5t26.5 -132.5t-26.5 -131t-72.5 -107t-107.5 -73t-131.5 -27h-421v-319h-123zM195 442h421q45 0 84 16.5t68 46.5t46 68.5t17 83.5t-17 84t-46 68t-67.5 46t-84.5 17h-421v-430z" />
<glyph unicode="&#xdf;" horiz-adv-x="884" d="M72 0v956q0 63 27.5 120t73.5 99t105.5 65.5t124.5 23.5q96 0 170 -46.5t115 -119t44 -161.5t-42 -175q-23 6 -44 1t-38.5 -18.5t-29 -34t-11.5 -42.5q0 -27 11 -49.5t38 -36.5q86 -45 132.5 -106.5t58.5 -128t-6.5 -132t-61.5 -118t-107.5 -85t-144.5 -32.5 q-78 0 -143 34l31 127q49 -39 112 -39q68 0 115 44t62.5 103.5t-5 120t-88.5 95.5q-55 29 -91 82t-36 119q0 78 46.5 136t115.5 77q14 45 4 92t-38.5 85t-72.5 61.5t-96 23.5q-41 0 -78.5 -14.5t-66.5 -41t-46 -61.5t-17 -74v-950h-123z" />
<glyph unicode="&#xe0;" d="M72 436q0 92 35.5 174t97 143.5t143.5 97.5t176 36q92 0 172 -33t140 -92v110h122v-872h-122v111q-59 -59 -139.5 -93t-172.5 -34q-94 0 -176 35.5t-143.5 97t-97 143.5t-35.5 176zM195 436q0 -68 25.5 -128t70.5 -105t105.5 -71t127.5 -26q111 0 195 65t117 163v205 q-33 98 -117 161.5t-195 63.5q-68 0 -128 -25.5t-105 -70.5t-70.5 -104.5t-25.5 -127.5zM344 1264h190l150 -250h-111z" />
<glyph unicode="&#xe1;" d="M72 436q0 92 35.5 174t97 143.5t143.5 97.5t176 36q92 0 172 -33t140 -92v110h122v-872h-122v111q-59 -59 -139.5 -93t-172.5 -34q-94 0 -176 35.5t-143.5 97t-97 143.5t-35.5 176zM195 436q0 -68 25.5 -128t70.5 -105t105.5 -71t127.5 -26q111 0 195 65t117 163v205 q-33 98 -117 161.5t-195 63.5q-68 0 -128 -25.5t-105 -70.5t-70.5 -104.5t-25.5 -127.5zM346 985l161 279h177l-226 -279h-112z" />
<glyph unicode="&#xe2;" d="M72 436q0 92 35.5 174t97 143.5t143.5 97.5t176 36q92 0 172 -33t140 -92v110h122v-872h-122v111q-59 -59 -139.5 -93t-172.5 -34q-94 0 -176 35.5t-143.5 97t-97 143.5t-35.5 176zM195 436q0 -68 25.5 -128t70.5 -105t105.5 -71t127.5 -26q111 0 195 65t117 163v205 q-33 98 -117 161.5t-195 63.5q-68 0 -128 -25.5t-105 -70.5t-70.5 -104.5t-25.5 -127.5zM308 987l207 291l206 -291h-123l-83 119l-84 -119h-123z" />
<glyph unicode="&#xe3;" d="M72 436q0 92 35.5 174t97 143.5t143.5 97.5t176 36q92 0 172 -33t140 -92v110h122v-872h-122v111q-59 -59 -139.5 -93t-172.5 -34q-94 0 -176 35.5t-143.5 97t-97 143.5t-35.5 176zM195 436q0 -68 25.5 -128t70.5 -105t105.5 -71t127.5 -26q111 0 195 65t117 163v205 q-33 98 -117 161.5t-195 63.5q-68 0 -128 -25.5t-105 -70.5t-70.5 -104.5t-25.5 -127.5zM226 1184q47 82 129 92q37 4 71.5 -4t68.5 -20.5t69.5 -22.5t72.5 -10q23 0 40.5 11t45.5 48l80 -80q-27 -47 -61.5 -72.5t-87.5 -25.5q-35 0 -67 10t-63.5 23.5t-63.5 23.5t-66 10 q-23 0 -41.5 -11t-48.5 -50z" />
<glyph unicode="&#xe4;" d="M72 436q0 92 35.5 174t97 143.5t143.5 97.5t176 36q92 0 172 -33t140 -92v110h122v-872h-122v111q-59 -59 -139.5 -93t-172.5 -34q-94 0 -176 35.5t-143.5 97t-97 143.5t-35.5 176zM195 436q0 -68 25.5 -128t70.5 -105t105.5 -71t127.5 -26q111 0 195 65t117 163v205 q-33 98 -117 161.5t-195 63.5q-68 0 -128 -25.5t-105 -70.5t-70.5 -104.5t-25.5 -127.5zM228 1165q0 41 28.5 69.5t69.5 28.5t68.5 -28.5t27.5 -69.5t-27.5 -68.5t-68.5 -27.5t-69.5 27.5t-28.5 68.5zM607 1165q0 41 28.5 69.5t69.5 28.5t68.5 -28.5t27.5 -69.5t-27.5 -68.5 t-68.5 -27.5t-69.5 27.5t-28.5 68.5z" />
<glyph unicode="&#xe5;" d="M72 436q0 92 35.5 174t97 143.5t143.5 97.5t176 36q92 0 172 -33t140 -92v110h122v-872h-122v111q-59 -59 -139.5 -93t-172.5 -34q-94 0 -176 35.5t-143.5 97t-97 143.5t-35.5 176zM195 436q0 -68 25.5 -128t70.5 -105t105.5 -71t127.5 -26q111 0 195 65t117 163v205 q-33 98 -117 161.5t-195 63.5q-68 0 -128 -25.5t-105 -70.5t-70.5 -104.5t-25.5 -127.5zM303 1225q0 43 16 80.5t45 67.5t68 46.5t82 16.5t81.5 -16.5t67.5 -46.5t45.5 -67.5t16.5 -80.5t-16.5 -82t-45.5 -67.5t-67.5 -45t-81.5 -16.5t-82 16.5t-68 45t-45 67.5t-16 82z M407 1225q0 -45 31 -76t76 -31t75.5 31t30.5 76q0 43 -30.5 74.5t-75.5 31.5t-76 -31.5t-31 -74.5z" />
<glyph unicode="&#xe6;" horiz-adv-x="1699" d="M72 233q0 94 59 163t152 85l444 74v63q0 68 -63.5 105t-150.5 42t-175 -25.5t-137 -98.5l-109 64q41 61 104.5 102t137.5 61.5t149.5 20.5t143 -18.5t121 -56.5t79.5 -93q55 68 134.5 112t175.5 54q92 8 176 -18.5t150.5 -80t110.5 -130t54 -166.5l-741 -207 q47 -86 133 -135.5t190 -38.5q68 6 125.5 37.5t98.5 78.5l94 -77q-55 -66 -133 -109t-172 -53q-125 -12 -233.5 39t-178.5 147q-92 -88 -215 -138t-262 -50q-55 0 -102.5 17t-83 50t-56 79t-20.5 101zM195 233q0 -66 42 -95t101 -29q115 0 213 39.5t176 111.5v170l-428 -72 q-45 -8 -74.5 -42.5t-29.5 -82.5zM852 406l625 172q-43 92 -132.5 144t-197.5 42q-68 -6 -125 -38t-97 -81t-59.5 -110.5t-13.5 -128.5z" />
<glyph unicode="&#xe7;" horiz-adv-x="915" d="M72 436q0 92 35.5 174t97 143.5t143.5 97.5t176 36t176 -35t144 -96l-88 -88q-45 45 -104.5 70.5t-127.5 25.5t-128 -25.5t-105 -70.5t-70.5 -104.5t-25.5 -127.5t25.5 -128t70.5 -105t105.5 -71t127.5 -26q68 0 127.5 26t104.5 71l88 -86q-61 -61 -143.5 -97t-176.5 -36 t-176 35.5t-143.5 97t-97 143.5t-35.5 176zM308 -305l14 80q14 -2 46 -4t63.5 1t56 14t24.5 34q0 20 -15 31.5t-35.5 16.5t-42 6t-33.5 1l40 145h82l-22 -77q53 -8 88 -39t35 -84t-33 -81t-81 -38t-99 -10t-88 4z" />
<glyph unicode="&#xe8;" horiz-adv-x="1044" d="M74 393q-8 92 19.5 178t82.5 153t134 110t171 53q92 8 176 -18.5t150.5 -80t111 -130t54.5 -166.5l-742 -207q47 -86 133.5 -135.5t190.5 -38.5q68 6 125 37.5t98 78.5l94 -77q-55 -66 -132.5 -109t-172.5 -53q-92 -10 -178 17.5t-152.5 82.5t-110.5 134t-52 171z M197 406l624 172q-43 92 -132 144t-195 42q-68 -6 -125.5 -38t-97.5 -80t-60.5 -110.5t-13.5 -129.5zM353 1264h190l150 -250h-111z" />
<glyph unicode="&#xe9;" horiz-adv-x="1044" d="M74 393q-8 92 19.5 178t82.5 153t134 110t171 53q92 8 176 -18.5t150.5 -80t111 -130t54.5 -166.5l-742 -207q47 -86 133.5 -135.5t190.5 -38.5q68 6 125 37.5t98 78.5l94 -77q-55 -66 -132.5 -109t-172.5 -53q-92 -10 -178 17.5t-152.5 82.5t-110.5 134t-52 171z M197 406l624 172q-43 92 -132 144t-195 42q-68 -6 -125.5 -38t-97.5 -80t-60.5 -110.5t-13.5 -129.5zM355 985l161 279h177l-226 -279h-112z" />
<glyph unicode="&#xea;" horiz-adv-x="1044" d="M74 393q-8 92 19.5 178t82.5 153t134 110t171 53q92 8 176 -18.5t150.5 -80t111 -130t54.5 -166.5l-742 -207q47 -86 133.5 -135.5t190.5 -38.5q68 6 125 37.5t98 78.5l94 -77q-55 -66 -132.5 -109t-172.5 -53q-92 -10 -178 17.5t-152.5 82.5t-110.5 134t-52 171z M197 406l624 172q-43 92 -132 144t-195 42q-68 -6 -125.5 -38t-97.5 -80t-60.5 -110.5t-13.5 -129.5zM316 987l207 291l206 -291h-123l-83 119l-84 -119h-123z" />
<glyph unicode="&#xeb;" horiz-adv-x="1044" d="M74 393q-8 92 19.5 178t82.5 153t134 110t171 53q92 8 176 -18.5t150.5 -80t111 -130t54.5 -166.5l-742 -207q47 -86 133.5 -135.5t190.5 -38.5q68 6 125 37.5t98 78.5l94 -77q-55 -66 -132.5 -109t-172.5 -53q-92 -10 -178 17.5t-152.5 82.5t-110.5 134t-52 171z M197 406l624 172q-43 92 -132 144t-195 42q-68 -6 -125.5 -38t-97.5 -80t-60.5 -110.5t-13.5 -129.5zM236 1165q0 41 28.5 69.5t69.5 28.5t68.5 -28.5t27.5 -69.5t-27.5 -68.5t-68.5 -27.5t-69.5 27.5t-28.5 68.5zM615 1165q0 41 28.5 69.5t69.5 28.5t68.5 -28.5t27.5 -69.5 t-27.5 -68.5t-68.5 -27.5t-69.5 27.5t-28.5 68.5z" />
<glyph unicode="&#xec;" horiz-adv-x="483" d="M72 1264h190l150 -250h-111zM181 0v872h123v-872h-123z" />
<glyph unicode="&#xed;" horiz-adv-x="481" d="M72 985l161 279h177l-226 -279h-112zM178 0v872h123v-872h-123z" />
<glyph unicode="&#xee;" horiz-adv-x="557" d="M72 987l207 291l206 -291h-123l-83 119l-84 -119h-123zM217 0v872h123v-872h-123z" />
<glyph unicode="&#xef;" horiz-adv-x="716" d="M72 1165q0 41 28.5 69.5t69.5 28.5t68.5 -28.5t27.5 -69.5t-27.5 -68.5t-68.5 -27.5t-69.5 27.5t-28.5 68.5zM297 0v872h123v-872h-123zM451 1165q0 41 28.5 69.5t69.5 28.5t68.5 -28.5t27.5 -69.5t-27.5 -68.5t-68.5 -27.5t-69.5 27.5t-28.5 68.5z" />
<glyph unicode="&#xf0;" horiz-adv-x="1046" d="M72 428q0 90 33.5 170t97.5 143q61 63 142 97t169 34q86 0 164 -30.5t139 -89.5q-35 104 -99.5 192t-152.5 152l-252 -121l-61 61l229 111q-33 16 -66.5 29.5t-70.5 23.5l98 98q47 -16 90 -38.5t84 -49.5l179 84l61 -61l-166 -78q131 -113 208 -271.5t77 -344.5 q0 -109 -31 -222.5t-117 -199.5q-63 -63 -143 -97t-170 -34q-88 0 -169 33.5t-142 97.5q-63 61 -97 142t-34 169zM195 428q0 -66 25.5 -124t68.5 -101t101 -68.5t124 -25.5q63 0 121.5 24.5t102.5 67.5t71 101t27 126t-26 126t-69 101t-101 69t-126 26q-66 0 -124 -26 t-101 -69t-68.5 -101t-25.5 -126z" />
<glyph unicode="&#xf1;" horiz-adv-x="864" d="M72 0v872h123v-73q47 41 107 64.5t130 23.5q74 0 139.5 -29t114.5 -78t78 -114.5t29 -139.5v-526h-123v526q0 49 -19.5 92.5t-51.5 76t-75 51t-92 18.5t-92 -18.5t-76 -51t-51 -76t-18 -92.5v-526h-123zM144 1184q47 82 129 92q37 4 71.5 -4t68.5 -20.5t69.5 -22.5 t72.5 -10q23 0 40.5 11t45.5 48l80 -80q-27 -47 -61.5 -72.5t-87.5 -25.5q-35 0 -67 10t-63.5 23.5t-63.5 23.5t-66 10q-23 0 -41.5 -11t-48.5 -50z" />
<glyph unicode="&#xf2;" horiz-adv-x="1046" d="M72 436q0 92 34.5 174t96 143.5t143.5 97.5t176 36t176 -36t143.5 -97.5t97.5 -143.5t36 -174q0 -94 -36 -176t-97.5 -143.5t-143.5 -97t-176 -35.5t-176 35.5t-143.5 97t-96 143.5t-34.5 176zM195 436q0 -68 25.5 -128t69.5 -105t104.5 -71t127.5 -26q68 0 128.5 26 t105.5 71t70.5 105.5t25.5 127.5q0 68 -25.5 127.5t-70.5 104.5t-105.5 70.5t-128.5 25.5t-128 -25.5t-104 -70.5t-69.5 -104.5t-25.5 -127.5zM353 1264h190l150 -250h-111z" />
<glyph unicode="&#xf3;" horiz-adv-x="1046" d="M72 436q0 92 34.5 174t96 143.5t143.5 97.5t176 36t176 -36t143.5 -97.5t97.5 -143.5t36 -174q0 -94 -36 -176t-97.5 -143.5t-143.5 -97t-176 -35.5t-176 35.5t-143.5 97t-96 143.5t-34.5 176zM195 436q0 -68 25.5 -128t69.5 -105t104.5 -71t127.5 -26q68 0 128.5 26 t105.5 71t70.5 105.5t25.5 127.5q0 68 -25.5 127.5t-70.5 104.5t-105.5 70.5t-128.5 25.5t-128 -25.5t-104 -70.5t-69.5 -104.5t-25.5 -127.5zM355 985l161 279h177l-226 -279h-112z" />
<glyph unicode="&#xf4;" horiz-adv-x="1046" d="M72 436q0 92 34.5 174t96 143.5t143.5 97.5t176 36t176 -36t143.5 -97.5t97.5 -143.5t36 -174q0 -94 -36 -176t-97.5 -143.5t-143.5 -97t-176 -35.5t-176 35.5t-143.5 97t-96 143.5t-34.5 176zM195 436q0 -68 25.5 -128t69.5 -105t104.5 -71t127.5 -26q68 0 128.5 26 t105.5 71t70.5 105.5t25.5 127.5q0 68 -25.5 127.5t-70.5 104.5t-105.5 70.5t-128.5 25.5t-128 -25.5t-104 -70.5t-69.5 -104.5t-25.5 -127.5zM316 987l207 291l206 -291h-123l-83 119l-84 -119h-123z" />
<glyph unicode="&#xf5;" horiz-adv-x="1046" d="M72 436q0 92 34.5 174t96 143.5t143.5 97.5t176 36t176 -36t143.5 -97.5t97.5 -143.5t36 -174q0 -94 -36 -176t-97.5 -143.5t-143.5 -97t-176 -35.5t-176 35.5t-143.5 97t-96 143.5t-34.5 176zM195 436q0 -68 25.5 -128t69.5 -105t104.5 -71t127.5 -26q68 0 128.5 26 t105.5 71t70.5 105.5t25.5 127.5q0 68 -25.5 127.5t-70.5 104.5t-105.5 70.5t-128.5 25.5t-128 -25.5t-104 -70.5t-69.5 -104.5t-25.5 -127.5zM234 1184q47 82 129 92q37 4 71.5 -4t68.5 -20.5t69.5 -22.5t72.5 -10q23 0 40.5 11t45.5 48l80 -80q-27 -47 -61.5 -72.5 t-87.5 -25.5q-35 0 -67 10t-63.5 23.5t-63.5 23.5t-66 10q-23 0 -41.5 -11t-48.5 -50z" />
<glyph unicode="&#xf6;" horiz-adv-x="1046" d="M72 436q0 92 34.5 174t96 143.5t143.5 97.5t176 36t176 -36t143.5 -97.5t97.5 -143.5t36 -174q0 -94 -36 -176t-97.5 -143.5t-143.5 -97t-176 -35.5t-176 35.5t-143.5 97t-96 143.5t-34.5 176zM195 436q0 -68 25.5 -128t69.5 -105t104.5 -71t127.5 -26q68 0 128.5 26 t105.5 71t70.5 105.5t25.5 127.5q0 68 -25.5 127.5t-70.5 104.5t-105.5 70.5t-128.5 25.5t-128 -25.5t-104 -70.5t-69.5 -104.5t-25.5 -127.5zM236 1165q0 41 28.5 69.5t69.5 28.5t68.5 -28.5t27.5 -69.5t-27.5 -68.5t-68.5 -27.5t-69.5 27.5t-28.5 68.5zM615 1165 q0 41 28.5 69.5t69.5 28.5t68.5 -28.5t27.5 -69.5t-27.5 -68.5t-68.5 -27.5t-69.5 27.5t-28.5 68.5z" />
<glyph unicode="&#xf7;" horiz-adv-x="1024" d="M72 571v123h880v-123h-880zM414 322q0 43 29.5 71.5t70.5 28.5t69.5 -28.5t28.5 -71.5q0 -41 -28.5 -68.5t-69.5 -27.5t-70.5 27.5t-29.5 68.5zM414 949q0 43 29.5 71.5t70.5 28.5t69.5 -28.5t28.5 -71.5q0 -41 -28.5 -69t-69.5 -28t-70.5 28t-29.5 69z" />
<glyph unicode="&#xf8;" horiz-adv-x="1206" d="M72 -100l196 233q-53 61 -84.5 138t-31.5 165q0 94 35.5 176t97 143.5t143.5 97.5t176 36q66 0 126.5 -18.5t113.5 -51.5l196 234l95 -78l-197 -236q53 -59 85 -137t32 -166q0 -92 -36 -174t-97.5 -143.5t-143.5 -97t-174 -35.5q-133 0 -242 69l-196 -233zM274 436 q0 -59 19.5 -111.5t54.5 -95.5l416 496q-72 41 -160 41q-68 0 -128 -25.5t-105 -70.5t-71 -105.5t-26 -128.5zM442 150q72 -41 162 -41q68 0 127.5 25.5t104.5 70.5t70.5 104.5t25.5 126.5q0 119 -74 209z" />
<glyph unicode="&#xf9;" horiz-adv-x="864" d="M72 344v528h123v-528q0 -49 18 -92t51 -76t76 -51.5t92 -18.5t92 18.5t76 51.5t51.5 76t18.5 92v528h123v-872h-123v74q-47 -41 -107.5 -65.5t-130.5 -24.5q-74 0 -139.5 28.5t-114.5 77.5t-77.5 114.5t-28.5 139.5zM262 1264h190l150 -250h-111z" />
<glyph unicode="&#xfa;" horiz-adv-x="864" d="M72 344v528h123v-528q0 -49 18 -92t51 -76t76 -51.5t92 -18.5t92 18.5t76 51.5t51.5 76t18.5 92v528h123v-872h-123v74q-47 -41 -107.5 -65.5t-130.5 -24.5q-74 0 -139.5 28.5t-114.5 77.5t-77.5 114.5t-28.5 139.5zM265 985l161 279h177l-226 -279h-112z" />
<glyph unicode="&#xfb;" horiz-adv-x="864" d="M72 344v528h123v-528q0 -49 18 -92t51 -76t76 -51.5t92 -18.5t92 18.5t76 51.5t51.5 76t18.5 92v528h123v-872h-123v74q-47 -41 -107.5 -65.5t-130.5 -24.5q-74 0 -139.5 28.5t-114.5 77.5t-77.5 114.5t-28.5 139.5zM226 987l207 291l206 -291h-123l-83 119l-84 -119 h-123z" />
<glyph unicode="&#xfc;" horiz-adv-x="864" d="M72 344v528h123v-528q0 -49 18 -92t51 -76t76 -51.5t92 -18.5t92 18.5t76 51.5t51.5 76t18.5 92v528h123v-872h-123v74q-47 -41 -107.5 -65.5t-130.5 -24.5q-74 0 -139.5 28.5t-114.5 77.5t-77.5 114.5t-28.5 139.5zM146 1165q0 41 28.5 69.5t69.5 28.5t68.5 -28.5 t27.5 -69.5t-27.5 -68.5t-68.5 -27.5t-69.5 27.5t-28.5 68.5zM525 1165q0 41 28.5 69.5t69.5 28.5t68.5 -28.5t27.5 -69.5t-27.5 -68.5t-68.5 -27.5t-69.5 27.5t-28.5 68.5z" />
<glyph unicode="&#xfd;" horiz-adv-x="1054" d="M72 872h133l323 -720l320 720h135l-594 -1331h-133l205 459zM359 985l161 279h177l-226 -279h-112z" />
<glyph unicode="&#xfe;" d="M72 -459v1858h123v-637q61 59 141 92t172 33t174 -36t143.5 -97.5t97 -143.5t35.5 -174q0 -94 -35.5 -176t-97 -143.5t-143.5 -97t-174 -35.5t-172 33.5t-141 93.5v-570h-123zM195 334q33 -98 117.5 -163t195.5 -65q68 0 127 26t104 71t71 105.5t26 127.5q0 68 -26 127.5 t-71 104.5t-104.5 70.5t-126.5 25.5q-111 0 -196 -63.5t-117 -161.5v-205z" />
<glyph unicode="&#xff;" horiz-adv-x="1054" d="M72 872h133l323 -720l320 720h135l-594 -1331h-133l205 459zM240 1163q0 41 28.5 69.5t69.5 28.5t68.5 -28.5t27.5 -69.5t-27.5 -68.5t-68.5 -27.5t-69.5 27.5t-28.5 68.5zM619 1163q0 41 28.5 69.5t69.5 28.5t68.5 -28.5t27.5 -69.5t-27.5 -68.5t-68.5 -27.5t-69.5 27.5 t-28.5 68.5z" />
<glyph unicode="&#x152;" horiz-adv-x="1695" d="M72 633q0 131 49 245.5t135 200.5t200.5 135.5t245.5 49.5h922v-123h-614v-430h491v-123h-491v-465h614v-123h-922q-131 0 -245.5 49t-200.5 135t-135 202t-49 247zM195 633q0 -104 39.5 -197.5t108.5 -163t162 -109.5t197 -40h185v1018h-185q-104 0 -197 -40 t-162 -108.5t-108.5 -162t-39.5 -197.5z" />
<glyph unicode="&#x153;" horiz-adv-x="1824" d="M72 436q0 92 34.5 174t96 143.5t143.5 97.5t176 36t176 -36t143.5 -97.5t97.5 -143.5t36 -174q0 -94 -36 -176t-97.5 -143.5t-143.5 -97t-176 -35.5t-176 35.5t-143.5 97t-96 143.5t-34.5 176zM195 436q0 -68 25.5 -128t69.5 -105t104.5 -71t127.5 -26q68 0 128.5 26 t105.5 71t70.5 105.5t25.5 127.5q0 68 -25.5 127.5t-70.5 104.5t-105.5 70.5t-128.5 25.5t-128 -25.5t-104 -70.5t-69.5 -104.5t-25.5 -127.5zM854 393q-8 92 19.5 178t82.5 153t134 110t171 53q92 8 176 -18.5t150.5 -80t111 -130t54.5 -166.5l-742 -207 q47 -86 133.5 -135.5t190.5 -38.5q68 6 125 37.5t98 78.5l94 -77q-55 -66 -132.5 -109t-172.5 -53q-92 -10 -178 17.5t-152.5 82.5t-110.5 134t-52 171zM977 406l624 172q-43 92 -132 144t-195 42q-68 -6 -125.5 -38t-97.5 -80t-60.5 -110.5t-13.5 -129.5z" />
<glyph unicode="&#x178;" horiz-adv-x="1218" d="M72 1264h149l389 -553l387 553h150l-475 -678v-586h-123v586zM322 1495q0 41 28.5 69.5t69.5 28.5t68.5 -28.5t27.5 -69.5t-27.5 -68.5t-68.5 -27.5t-69.5 27.5t-28.5 68.5zM701 1495q0 41 28.5 69.5t69.5 28.5t68.5 -28.5t27.5 -69.5t-27.5 -68.5t-68.5 -27.5 t-69.5 27.5t-28.5 68.5z" />
<glyph unicode="&#x2c6;" horiz-adv-x="557" d="M72 987l207 291l206 -291h-123l-83 119l-84 -119h-123z" />
<glyph unicode="&#x2dc;" horiz-adv-x="720" d="M72 1184q47 82 129 92q37 4 71.5 -4t68.5 -20.5t69.5 -22.5t72.5 -10q23 0 40.5 11t45.5 48l80 -80q-27 -47 -61.5 -72.5t-87.5 -25.5q-35 0 -67 10t-63.5 23.5t-63.5 23.5t-66 10q-23 0 -41.5 -11t-48.5 -50z" />
<glyph unicode="&#x2000;" horiz-adv-x="845" />
<glyph unicode="&#x2001;" horiz-adv-x="1690" />
<glyph unicode="&#x2002;" horiz-adv-x="845" />
<glyph unicode="&#x2003;" horiz-adv-x="1690" />
<glyph unicode="&#x2004;" horiz-adv-x="563" />
<glyph unicode="&#x2005;" horiz-adv-x="422" />
<glyph unicode="&#x2006;" horiz-adv-x="281" />
<glyph unicode="&#x2007;" horiz-adv-x="281" />
<glyph unicode="&#x2008;" horiz-adv-x="211" />
<glyph unicode="&#x2009;" horiz-adv-x="338" />
<glyph unicode="&#x200a;" horiz-adv-x="93" />
<glyph unicode="&#x2010;" horiz-adv-x="655" d="M72 571v123h512v-123h-512z" />
<glyph unicode="&#x2011;" horiz-adv-x="655" d="M72 571v123h512v-123h-512z" />
<glyph unicode="&#x2012;" horiz-adv-x="655" d="M72 571v123h512v-123h-512z" />
<glyph unicode="&#x2013;" horiz-adv-x="1044" d="M72 571v123h901v-123h-901z" />
<glyph unicode="&#x2014;" horiz-adv-x="2068" d="M72 571v123h1925v-123h-1925z" />
<glyph unicode="&#x2018;" horiz-adv-x="339" d="M72 1149q0 88 49 160.5t133 103.5v-61q-59 -39 -82 -107q41 0 68.5 -27.5t27.5 -68.5q0 -43 -28.5 -71.5t-69.5 -28.5t-69.5 28.5t-28.5 71.5z" />
<glyph unicode="&#x2019;" horiz-adv-x="339" d="M72 1313q0 43 28.5 71.5t69.5 28.5t69.5 -28.5t28.5 -71.5q0 -88 -49 -161t-133 -103v61q59 39 82 107q-41 0 -68.5 27.5t-27.5 68.5z" />
<glyph unicode="&#x201a;" horiz-adv-x="342" d="M72 82q0 43 29.5 71.5t70.5 28.5t69.5 -28.5t28.5 -71.5q0 -88 -49 -160t-133 -104v61q59 39 82 107q-41 0 -69.5 27.5t-28.5 68.5z" />
<glyph unicode="&#x201c;" horiz-adv-x="608" d="M72 1149q0 88 49 160.5t133 103.5v-61q-59 -39 -82 -107q41 0 68.5 -27.5t27.5 -68.5q0 -43 -28.5 -71.5t-69.5 -28.5t-69.5 28.5t-28.5 71.5zM340 1149q0 88 49 160.5t133 103.5v-61q-59 -39 -82 -107q41 0 69 -27.5t28 -68.5q0 -43 -29 -71.5t-70 -28.5t-69.5 28.5 t-28.5 71.5z" />
<glyph unicode="&#x201d;" horiz-adv-x="608" d="M72 1313q0 43 28.5 71.5t69.5 28.5t69.5 -28.5t28.5 -71.5q0 -88 -49 -161t-133 -103v61q59 39 82 107q-41 0 -68.5 27.5t-27.5 68.5zM340 1313q0 43 28.5 71.5t69.5 28.5t70 -28.5t29 -71.5q0 -88 -49.5 -161t-133.5 -103v61q59 39 82 107q-41 0 -68.5 27.5t-27.5 68.5z " />
<glyph unicode="&#x201e;" horiz-adv-x="608" d="M72 82q0 43 28.5 71.5t69.5 28.5t69.5 -28.5t28.5 -71.5q0 -88 -49 -161t-133 -103v61q59 39 82 107q-41 0 -68.5 27.5t-27.5 68.5zM340 82q0 43 28.5 71.5t69.5 28.5t70 -28.5t29 -71.5q0 -88 -49.5 -161t-133.5 -103v61q59 39 82 107q-41 0 -68.5 27.5t-27.5 68.5z" />
<glyph unicode="&#x2022;" horiz-adv-x="573" d="M72 537q0 45 16 83.5t46 67.5t69 46.5t84 17.5t84 -16.5t67.5 -46.5t46 -68.5t17.5 -83.5t-17.5 -84t-46 -69t-68.5 -46t-85 -16q-43 0 -82 16t-69 46t-46 69t-16 84z" />
<glyph unicode="&#x2026;" horiz-adv-x="983" d="M72 82q0 43 29.5 71.5t70.5 28.5t68.5 -28.5t27.5 -71.5q0 -41 -27.5 -68.5t-68.5 -27.5t-70.5 27.5t-29.5 68.5zM393 82q0 43 30 71.5t71 28.5t68.5 -28.5t27.5 -71.5q0 -41 -27.5 -68.5t-68.5 -27.5t-71 27.5t-30 68.5zM715 82q0 43 29.5 71.5t70.5 28.5t68.5 -28.5 t27.5 -71.5q0 -41 -27.5 -68.5t-68.5 -27.5t-70.5 27.5t-29.5 68.5z" />
<glyph unicode="&#x202f;" horiz-adv-x="338" />
<glyph unicode="&#x2039;" horiz-adv-x="559" d="M72 516l270 377h145l-272 -377l272 -377h-145z" />
<glyph unicode="&#x203a;" horiz-adv-x="559" d="M72 139l272 377l-272 377h145l270 -377l-270 -377h-145z" />
<glyph unicode="&#x205f;" horiz-adv-x="422" />
<glyph unicode="&#x20ac;" horiz-adv-x="1222" d="M72 446v123h112q-2 16 -3 30.5t-1 31.5q0 16 1 30.5t3 30.5h-112v123h135q31 100 90 185t140 146.5t180.5 96.5t209.5 35q90 0 171 -22.5t153 -63.5l-61 -107q-117 70 -263 70q-84 0 -160.5 -25.5t-140 -70.5t-112.5 -107.5t-76 -136.5h676v-123h-707q-2 -16 -3 -30.5 t-1 -30.5t1 -30.5t3 -31.5h707v-123h-676q27 -74 76 -136t112.5 -107t140 -71t160.5 -26q145 0 263 70l61 -106q-72 -41 -152.5 -63.5t-171.5 -22.5q-111 0 -210 34.5t-180 96t-140 146.5t-90 185h-135z" />
<glyph unicode="&#x2122;" horiz-adv-x="1095" d="M72 1178v86h407v-86h-162v-426h-84v426h-161zM565 752v526l230 -315l229 315v-526h-82v274l-147 -203l-148 203v-274h-82z" />
<glyph unicode="&#x25fc;" horiz-adv-x="870" d="M0 0v870h870v-870h-870z" />
<glyph unicode="&#xfb01;" horiz-adv-x="856" d="M72 750v122h135v189q0 70 26.5 131t72.5 107.5t107.5 73t131.5 26.5q72 0 132 -25.5t107 -73.5l-88 -86q-61 61 -151 62q-45 0 -84 -17.5t-69 -46t-46 -67.5t-16 -84v-189h452v-872h-123v750h-329v-873h-123v873h-135z" />
<glyph unicode="&#xfb02;" horiz-adv-x="1069" d="M72 750v122h135v189q0 70 26.5 131t72.5 107.5t107.5 73t131.5 26.5t131 -25.5t106 -73.5v-976q0 -45 16.5 -84t46 -69t68.5 -46t84 -16v-123q-70 0 -131 26.5t-107 72.5t-73 107.5t-27 131.5v919q-53 33 -114 33q-45 0 -84 -17.5t-69 -46t-46 -67.5t-16 -84v-189h215 v-122h-215v-873h-123v873h-135z" />
<glyph unicode="&#xfb03;" horiz-adv-x="1308" d="M72 750v122h135v189q0 70 26.5 131t72.5 107.5t107.5 73t131.5 26.5q66 0 123 -22.5t102 -63.5q47 41 104.5 63.5t122.5 22.5q72 0 132.5 -25.5t107.5 -73.5l-86 -86q-61 61 -154 62q-45 0 -84 -17.5t-68.5 -46t-46 -67.5t-16.5 -84v-189h453v-872h-123v750h-330v-873 h-123v873h-329v-873h-123v873h-135zM330 872h329v189q0 41 10.5 79.5t26.5 73.5q-66 61 -151 62q-45 0 -84 -17.5t-69 -46t-46 -67.5t-16 -84v-189z" />
<glyph unicode="&#xfb04;" horiz-adv-x="1523" d="M72 750v122h135v189q0 70 26.5 131t72.5 107.5t107.5 73t131.5 26.5q66 0 124 -22.5t103 -63.5q45 41 103.5 63.5t123.5 22.5q70 0 131.5 -25.5t106.5 -73.5v-976q0 -45 16.5 -84t46 -69t68.5 -46t84 -16v-123q-70 0 -131 26.5t-107.5 72.5t-73 107.5t-26.5 131.5v919 q-53 33 -115 33q-45 0 -83.5 -17.5t-68.5 -46t-46.5 -67.5t-16.5 -84v-189h215v-122h-215v-873h-122v873h-332v-873h-123v873h-135zM330 872h332v189q-1 79 34 153q-61 61 -151 62q-45 0 -84 -17.5t-69 -46t-46 -67.5t-16 -84v-189z" />
</font>
</defs>
</svg>
